<svg width="19" height="19" viewBox="0 0 19 19" fill="none" xmlns="http://www.w3.org/2000/svg">
<path fill-rule="evenodd" clip-rule="evenodd" d="M2.06952 4.29558C2.15941 4.07857 2.31163 3.89309 2.50694 3.7626C2.70225 3.63211 2.93188 3.56247 3.16677 3.5625H11.0834C12.6582 3.5625 14.1684 4.18806 15.2819 5.30155C16.3954 6.41505 17.0209 7.92528 17.0209 9.5C17.0209 11.0747 16.3954 12.5849 15.2819 13.6984C14.1684 14.8119 12.6582 15.4375 11.0834 15.4375H3.95844C3.64349 15.4375 3.34145 15.3124 3.11875 15.0897C2.89605 14.867 2.77094 14.5649 2.77094 14.25C2.77094 13.9351 2.89605 13.633 3.11875 13.4103C3.34145 13.1876 3.64349 13.0625 3.95844 13.0625H11.0834C12.0283 13.0625 12.9344 12.6872 13.6025 12.0191C14.2706 11.351 14.6459 10.4448 14.6459 9.5C14.6459 8.55517 14.2706 7.64903 13.6025 6.98093C12.9344 6.31283 12.0283 5.9375 11.0834 5.9375H6.03339L6.77756 6.68167C6.99377 6.90573 7.11333 7.20576 7.11047 7.51711C7.10762 7.82847 6.98259 8.12626 6.76232 8.34632C6.54204 8.56639 6.24414 8.69114 5.93278 8.6937C5.62142 8.69626 5.32151 8.57642 5.09765 8.36L2.32681 5.58917C2.16087 5.42312 2.04786 5.21162 2.00206 4.98138C1.95627 4.75114 1.97974 4.51249 2.06952 4.29558Z" fill="white"/>
</svg>
