<svg width="241" height="175" viewBox="0 0 241 175" fill="none" xmlns="http://www.w3.org/2000/svg">
<path d="M54.1799 160.875L54.1802 160.876C55.3748 164.529 53.3804 168.457 49.7359 169.651L43.9639 171.539C43.9638 171.539 43.9637 171.539 43.9636 171.539C40.3197 172.729 36.3953 170.74 35.1997 167.088C35.1996 167.088 35.1995 167.088 35.1994 167.087C35.1994 167.087 35.1993 167.087 35.1993 167.087L17.4662 112.802L14.6321 113.728L17.4661 112.802C16.2732 109.15 18.264 105.223 21.9115 104.029C21.9116 104.029 21.9118 104.029 21.912 104.029L27.6853 102.141L27.6862 102.141C31.3302 100.948 35.2538 102.938 36.4463 106.588L54.1799 160.875Z" stroke="white" stroke-width="6"/>
<path d="M237.81 42.6378L237.811 42.6403C238.246 43.4992 237.9 44.5475 237.049 44.9787L237.048 44.9792L189.217 69.2286L189.216 69.2293C188.365 69.661 187.32 69.3216 186.885 68.4631L186.885 68.4618C186.449 67.6034 186.794 66.5572 187.648 66.1247L187.649 66.1241L235.476 41.8726C236.332 41.4387 237.377 41.7815 237.81 42.6378Z" fill="#FF0000" stroke="white" stroke-width="6"/>
<path d="M186.885 94.3889L186.886 94.3864C187.32 93.5286 188.364 93.1876 189.218 93.6197C189.218 93.6198 189.218 93.6198 189.218 93.6199L237.045 117.871L237.048 117.873C237.901 118.304 238.247 119.35 237.811 120.212C237.377 121.069 236.33 121.411 235.476 120.978L187.649 96.7266L187.648 96.726C186.794 96.2935 186.449 95.2473 186.885 94.3889Z" fill="#FF0000" stroke="white" stroke-width="6"/>
<path d="M213.265 10.3934L175.352 48.3312C173.502 50.1834 170.501 50.1834 168.652 48.3312C166.8 46.4817 166.8 43.4807 168.652 41.6285L206.565 3.688C208.414 1.83577 211.415 1.83577 213.265 3.688C215.112 5.54023 215.112 8.54118 213.265 10.3934ZM213.265 10.3934L211.14 8.27524L173.23 46.2105L173.229 46.2114C172.551 46.89 171.452 46.89 170.775 46.2114L170.772 46.2083C170.094 45.5316 170.092 44.4314 170.773 43.7498L170.774 43.7491L208.687 5.80855L208.688 5.80774C209.365 5.12935 210.464 5.12919 211.141 5.80727M213.265 10.3934L211.143 8.27278L211.142 8.27389C211.819 7.59276 211.819 6.48829 211.141 5.80727M211.141 5.80727C211.142 5.80743 211.142 5.80759 211.142 5.80775L213.265 3.68804L211.14 5.80617C211.141 5.80653 211.141 5.8069 211.141 5.80727Z" fill="#FF0000" stroke="white" stroke-width="6"/>
<path d="M170.775 116.637L170.773 116.638C170.093 117.319 170.093 118.421 170.773 119.101L170.774 119.102L208.686 157.042L170.775 116.637ZM170.775 116.637C171.452 115.958 172.551 115.958 173.229 116.637L173.23 116.638L211.143 154.578L211.143 154.579M170.775 116.637L211.143 154.579M211.143 154.579C211.821 155.256 211.823 156.361 211.142 157.043M211.143 154.579L211.142 157.043M211.142 157.043C210.464 157.719 209.364 157.719 208.687 157.042L211.142 157.043Z" fill="#FF0000" stroke="white" stroke-width="6"/>
<path d="M172.275 80.289C172.275 97.9807 157.941 112.322 140.264 112.322C122.587 112.322 108.255 97.981 108.255 80.289C108.255 62.5911 122.587 48.2505 140.264 48.2505C157.94 48.2505 172.275 62.5914 172.275 80.289Z" stroke="white" stroke-width="6"/>
<mask id="mask0_630_3851" style="mask-type:luminance" maskUnits="userSpaceOnUse" x="0" y="47" width="23" height="70">
<path d="M3 50.064H19.213V113.009H3V50.064Z" fill="white" stroke="white" stroke-width="6"/>
</mask>
<g mask="url(#mask0_630_3851)">
<path d="M9.97565 50.5286H18.7843V112.322H9.97565C6.14117 112.322 3.02747 109.207 3.02747 105.368V57.4822C3.02747 53.639 6.1401 50.5286 9.97565 50.5286Z" stroke="white" stroke-width="6"/>
</g>
<mask id="mask1_630_3851" style="mask-type:luminance" maskUnits="userSpaceOnUse" x="17" y="0" width="137" height="164">
<path d="M20.2883 3H150.771V160.145H20.2883V3Z" fill="white" stroke="white" stroke-width="6"/>
</mask>
<g mask="url(#mask1_630_3851)">
<path d="M89.0445 47.1978H89.9726L90.7385 46.6737L150.521 5.76993V157.075L90.7385 116.174L89.9725 115.65H89.0445H27.5224C23.6874 115.65 20.5742 112.537 20.5742 108.696V54.1542C20.5742 50.3099 23.6879 47.1978 27.5224 47.1978H89.0445Z" stroke="white" stroke-width="6"/>
<path d="M89.0445 65.0167H90.0582L90.8642 64.4018L150.521 18.8877V61.7019L88.5571 82.3785H27.5224C24.9945 82.3785 22.8248 82.0519 21.3876 81.6003C21.0408 81.4913 20.7735 81.3864 20.5742 81.2959V66.0999C20.7735 66.0093 21.0409 65.9043 21.3881 65.7951C22.825 65.3433 24.9945 65.0167 27.5224 65.0167H89.0445ZM20.109 81.032C20.1093 81.032 20.1147 81.0362 20.1239 81.0446C20.1133 81.0362 20.1086 81.032 20.109 81.032ZM20.1104 66.3633C20.1101 66.3633 20.1146 66.3591 20.1251 66.3509C20.116 66.3592 20.1108 66.3633 20.1104 66.3633Z" fill="#5B2B99" stroke="white" stroke-width="6"/>
<path d="M129.367 142.605V20.2443L131.787 18.5879V144.261L129.367 142.605Z" fill="#FBC25A" stroke="white" stroke-width="6"/>
</g>
</svg>
