<svg width="186" height="202" viewBox="0 0 186 202" fill="none" xmlns="http://www.w3.org/2000/svg">
<path fill-rule="evenodd" clip-rule="evenodd" d="M130.647 111.531C130.647 114.856 127.814 117.544 124.362 117.544C120.912 117.544 118.077 114.856 118.077 111.531C118.077 108.245 120.912 105.513 124.362 105.513C127.814 105.513 130.647 108.245 130.647 111.531ZM124.362 65.3657C122.513 65.3657 121.034 66.8156 121.034 68.5643V99.5433C115.489 100.989 111.421 105.812 111.421 111.531C111.421 117.248 115.487 122.112 121.034 123.521V132.609C121.034 134.355 122.513 135.807 124.362 135.807C126.211 135.807 127.69 134.355 127.69 132.609V123.521C133.237 122.112 137.303 117.248 137.303 111.531C137.303 105.812 133.237 100.989 127.69 99.5433V68.5643C127.69 66.8156 126.211 65.3657 124.362 65.3657ZM98.9717 91.0483C98.9717 94.3365 96.1383 97.0249 92.6862 97.0249C89.2365 97.0249 86.5226 94.3365 86.5226 91.0483C86.5226 87.7211 89.2341 85.035 92.6862 85.035C96.1383 85.035 98.9717 87.7211 98.9717 91.0483ZM92.6862 65.3657C90.9613 65.3657 89.3583 66.8156 89.3583 68.5643V79.0607C83.9353 80.4692 79.8692 85.3314 79.8692 91.0483C79.8692 96.7699 83.9353 101.586 89.3583 103.038V132.606C89.3583 134.355 90.9613 135.805 92.6862 135.805C94.5353 135.805 96.0141 134.355 96.0141 132.606V103.038C101.561 101.586 105.627 96.7699 105.627 91.0483C105.627 85.3314 101.561 80.4692 96.0141 79.0607V68.5643C96.0141 66.8156 94.5353 65.3657 92.6862 65.3657ZM67.2959 111.531C67.2959 114.856 64.4625 117.544 61.1346 117.544C57.6825 117.544 54.8491 114.856 54.8491 111.531C54.8491 108.245 57.6825 105.513 61.1346 105.513C64.4625 105.513 67.2959 108.245 67.2959 111.531ZM61.1346 65.3657C59.2855 65.3657 57.8067 66.8156 57.8067 68.5643V99.5433C52.2595 100.989 48.191 105.812 48.191 111.531C48.191 117.248 52.2595 122.112 57.8067 123.521V132.609C57.8067 134.355 59.2855 135.807 61.1346 135.807C62.8595 135.807 64.4625 134.355 64.4625 132.609V123.521C69.8855 122.112 73.9516 117.248 73.9516 111.531C73.9516 105.812 69.8855 100.989 64.4625 99.5433V68.5643C64.4625 66.8156 62.8595 65.3657 61.1346 65.3657ZM178.841 48.3826C178.841 48.856 178.471 49.2811 177.978 49.2811H165.159C164.667 49.2811 164.172 48.856 164.172 48.3826V7.29784C164.172 6.82908 164.667 6.40169 165.159 6.40169H177.978C178.471 6.40169 178.841 6.82908 178.841 7.29784V48.3826ZM148.644 46.3789C144.821 47.3624 141.618 48.9387 138.414 50.4736C132.497 53.3344 127.814 55.5495 121.526 53.7595L95.5219 46.2066C93.1401 45.4943 91.7975 43.1207 92.5644 40.6643C93.3026 38.1045 96.1383 37.2888 98.4795 37.7599C104.041 38.8444 110.226 40.5287 115.611 41.0434C121.106 41.5673 127.052 40.2553 132.497 38.2723C134.221 37.6312 135.086 35.7952 134.47 34.1362C133.854 32.4657 131.88 31.6615 130.155 32.2543C119.285 36.0802 115.759 34.9382 104.395 32.4244C102.794 32.0866 101.191 31.7442 99.9583 31.4892C94.5353 30.423 89.4825 32.5967 87.0171 36.696C83.8134 37.0338 80.7316 37.6312 77.774 38.6147C66.8037 42.1096 50.1643 51.202 35.2498 59.2627L33.6491 60.0762C32.0461 61.0114 29.9509 60.6276 28.7182 59.2214L28.4722 58.7963C27.1152 57.3027 27.2394 55.0417 28.7182 53.6768C30.0728 52.4383 31.554 51.202 32.9085 49.9635C42.2758 41.7305 56.0795 30.2093 68.7747 22.2726C78.6341 16.172 88.988 10.455 98.4795 9.68526C106.578 9.03268 115.243 12.0635 123.5 13.2262C134.346 14.7198 145.438 14.8507 157.517 14.7611V44.2489C154.559 44.8877 151.601 45.6092 148.644 46.3789ZM177.978 0C182.045 0 185.497 3.28586 185.497 7.29554V48.3826C185.497 52.3969 182.045 55.6805 177.978 55.6805H165.159C161.831 55.6805 158.998 53.5895 158.011 50.7287C155.421 51.2848 152.956 51.8822 150.369 52.5646C147.287 53.3735 144.205 54.8257 141.372 56.1906C135.086 59.2627 128.43 62.4199 119.68 59.8602L93.6729 52.3096C90.8371 51.4962 88.3717 49.6189 87.0171 47.0614C86.4007 45.8642 85.9086 44.5844 85.7844 43.3045C83.6892 43.6078 81.8401 44.0765 79.8692 44.674C69.5152 48.0012 53.1219 56.9167 38.58 64.8074C36.2292 66.0712 34.6716 66.9857 31.8 66.9857C28.7182 66.9857 25.6388 65.7081 23.6655 63.2724L23.2952 62.8887C19.8455 58.7526 20.2158 52.6933 24.16 49.0214C25.5146 47.7415 26.9934 46.503 28.3503 45.2668C37.9637 36.8201 52.1376 25.0438 65.2031 16.9394C75.6789 10.37 87.0171 4.17971 97.9874 3.28586C107.039 2.57584 115.774 5.64112 124.486 6.87044C134.84 8.32036 145.686 8.45133 157.519 8.36172V7.29784C157.519 3.28586 160.969 0 165.161 0H177.978ZM156.654 147.54C146.2 157.087 130.041 170.486 116.598 178.9C106.86 185.001 96.5062 190.759 86.8929 191.488C78.7679 192.122 70.4589 189.137 61.8728 187.986C51.151 186.451 40.0564 186.322 27.8558 186.451V156.97C36.5709 154.962 38.8667 154.652 47.0825 150.697C52.9977 147.836 57.5607 145.621 63.8461 147.453L89.8504 154.962C92.3159 155.69 93.6729 158.16 92.9323 160.511C92.1941 163.071 89.3583 163.923 86.8929 163.409C85.6601 163.154 84.1813 162.857 82.5807 162.515C78.2662 161.531 73.4595 160.465 69.7613 160.127C64.1615 159.654 58.6835 160.899 52.9977 162.898C51.151 163.54 50.4104 165.375 51.0267 167.039C51.6431 168.698 53.614 169.512 55.3413 168.912C59.9353 167.26 64.6082 166.069 69.145 166.524C72.3486 166.825 77.0334 167.846 81.0995 168.746C83.4431 169.252 86.0949 169.941 88.2498 169.941C92.562 169.941 96.3844 167.892 98.3553 164.475C101.561 164.178 104.641 163.54 107.601 162.597C119.061 158.928 136.668 149.19 151.726 141.097C153.451 140.159 155.421 140.543 156.654 141.995L157.024 142.374C158.257 143.916 158.133 146.173 156.654 147.54ZM21.2 193.875C21.2 194.385 20.8297 194.774 20.3376 194.774H7.5182C7.02606 194.774 6.53154 194.385 6.53154 193.875V152.829C6.53154 152.319 7.02606 151.894 7.5182 151.894H20.3376C20.8297 151.894 21.2 152.319 21.2 152.829V193.875ZM161.831 137.898C165.754 141.979 165.341 148.363 161.215 152.149C150.799 161.71 133.832 175.881 120.296 184.273C109.696 190.805 98.4795 196.989 87.5092 197.885C81.164 198.278 75.3349 197.166 69.2692 195.881C66.5577 195.284 63.7219 194.686 61.0104 194.3C50.5346 192.85 39.8128 192.724 27.8558 192.85V193.873C27.8558 197.885 24.5279 201.171 20.3376 201.171H7.5182C3.32788 201.171 0 197.885 0 193.873V152.829C0 148.778 3.32788 145.49 7.5182 145.49H20.3376C23.6655 145.49 26.4988 147.581 27.4855 150.483C35.0634 148.732 36.9388 148.392 44.1249 144.982C50.4104 141.908 56.9419 138.751 65.8171 141.311L91.8238 148.861C96.1359 150.141 99.0959 153.767 99.7123 157.866C101.683 157.57 103.654 157.096 105.503 156.501C116.158 153.08 133.88 143.429 148.52 135.506C152.956 133.075 158.627 134.1 161.831 137.898Z" fill="white"/>
</svg>
