<svg width="500" height="510" viewBox="0 0 500 510" fill="none" xmlns="http://www.w3.org/2000/svg">
<mask id="mask0_630_3409" style="mask-type:luminance" maskUnits="userSpaceOnUse" x="6" y="231" width="92" height="94">
<path d="M6 231H97.2656V324.091H6V231Z" fill="white"/>
</mask>
<g mask="url(#mask0_630_3409)">
<mask id="mask1_630_3409" style="mask-type:luminance" maskUnits="userSpaceOnUse" x="6" y="231" width="92" height="94">
<path d="M51.6354 231C26.4323 231 6 251.841 6 277.543C6 303.25 26.4323 324.091 51.6354 324.091C76.8385 324.091 97.2656 303.25 97.2656 277.543C97.2656 251.841 76.8385 231 51.6354 231Z" fill="white"/>
</mask>
<g mask="url(#mask1_630_3409)">
<path d="M6 231H97.2656V324.091H6V231Z" fill="#849BFF"/>
</g>
</g>
<mask id="mask2_630_3409" style="mask-type:luminance" maskUnits="userSpaceOnUse" x="51" y="277" width="122" height="124">
<path d="M51.6353 277.542H172.083V400.405H51.6353V277.542Z" fill="white"/>
</mask>
<g mask="url(#mask2_630_3409)">
<mask id="mask3_630_3409" style="mask-type:luminance" maskUnits="userSpaceOnUse" x="51" y="277" width="122" height="124">
<path d="M111.859 277.542C78.5988 277.542 51.6353 305.051 51.6353 338.976C51.6353 372.902 78.5988 400.405 111.859 400.405C145.12 400.405 172.083 372.902 172.083 338.976C172.083 305.051 145.12 277.542 111.859 277.542Z" fill="white"/>
</mask>
<g mask="url(#mask3_630_3409)">
<path d="M51.6353 277.542H172.083V400.405H51.6353V277.542Z" fill="#849BFF"/>
</g>
</g>
<mask id="mask4_630_3409" style="mask-type:luminance" maskUnits="userSpaceOnUse" x="346" y="0" width="137" height="133">
<path d="M346 0H482.427V132.693H346V0Z" fill="white"/>
</mask>
<g mask="url(#mask4_630_3409)">
<mask id="mask5_630_3409" style="mask-type:luminance" maskUnits="userSpaceOnUse" x="346" y="0" width="137" height="133">
<path d="M414.216 0C376.541 0 346 29.7052 346 66.3486C346 102.992 376.541 132.693 414.216 132.693C451.886 132.693 482.427 102.992 482.427 66.3486C482.427 29.7052 451.886 0 414.216 0Z" fill="white"/>
</mask>
<g mask="url(#mask5_630_3409)">
<path d="M346 0H482.427V132.693H346V0Z" fill="#849BFF"/>
</g>
</g>
<path d="M122.352 64.9711L123.04 168.947H231.248V216.547H182.957C171.967 216.547 162.946 215.719 155.894 214.061C148.852 212.404 143.238 209.96 139.061 206.73C134.894 203.489 131.608 199.611 129.207 195.106C126.8 190.601 124.832 185.512 123.29 179.827L124.207 324.774C124.207 315.142 126.488 306.424 131.061 298.615C135.628 290.795 141.779 284.558 149.519 279.894C157.253 275.235 165.769 272.902 175.061 272.902L229.852 272.669V324.774H124.207C115.842 324.774 107.946 323.159 100.519 319.929C93.0868 316.688 86.5868 312.225 81.019 306.541C75.4461 300.862 71.0711 294.232 67.894 286.651C64.7274 279.075 63.144 271.022 63.144 262.49V118.967C63.144 108.385 65.6961 98.7161 70.8107 89.9611C75.9201 81.1955 82.7326 74.2467 91.2482 69.1149C99.7586 63.9883 109.196 61.4224 119.561 61.4224H235.436V112.571H178.769C168.561 112.571 159.196 110.802 150.686 107.259C142.17 103.705 135.358 98.3761 130.248 91.2786C125.134 84.1705 122.503 75.3996 122.352 64.9711Z" fill="black"/>
<path d="M371.245 112.571C361.953 112.571 354.328 110.84 348.37 107.365C342.411 103.896 337.807 99.5558 334.557 94.3389C331.307 89.1274 328.979 83.9583 327.578 78.8264C326.187 73.6999 325.338 69.4021 325.036 65.9277C324.729 62.4427 324.578 60.7002 324.578 60.7002L398.87 61.4227C406.453 61.4227 414.068 62.0549 421.724 63.3139C429.39 64.5783 436.667 66.9849 443.557 70.5389C450.443 74.0983 456.599 79.3099 462.015 86.1789C467.432 93.0374 471.724 102.031 474.89 113.166C478.068 124.301 479.661 138.156 479.661 154.731C479.661 173.516 477.495 189.109 473.161 201.503C468.828 213.902 462.479 223.73 454.12 230.998C445.771 238.255 435.479 243.424 423.245 246.51C411.021 249.586 396.937 251.121 380.995 251.121C374.646 251.121 368.104 250.452 361.37 249.103C354.63 247.759 348.401 245.395 342.682 242.005C336.958 238.605 332.354 233.792 328.87 227.555C325.38 221.324 323.64 213.312 323.64 203.521V267.229C323.64 277.487 321.234 286.88 316.432 295.406C311.64 303.938 305.182 310.85 297.057 316.146C288.932 321.432 279.833 324.306 269.765 324.774C269.151 324.774 268.307 324.774 267.224 324.774H264.432V118.968C264.432 111.233 266.13 103.933 269.536 97.0589C272.937 90.1899 277.5 84.0699 283.224 78.6989C288.958 73.3333 295.38 69.0727 302.495 65.9277C309.62 62.7721 316.979 61.0296 324.578 60.7002V121.093L323.64 203.521L368.224 203.989C373.943 203.989 378.161 203.989 380.87 203.989C383.578 203.989 385.745 203.989 387.37 203.989C388.995 203.989 391.125 203.989 393.765 203.989C397.943 203.989 402.042 203.479 406.057 202.459C410.083 201.428 413.724 199.372 416.974 196.296C420.224 193.226 422.812 188.492 424.745 182.101C426.687 175.7 427.661 167.131 427.661 156.389C427.661 146.29 426.417 138.082 423.932 131.76C421.458 125.444 418.286 120.79 414.411 117.799C410.547 114.797 406.453 113.294 402.12 113.294C399.953 113.294 397.167 113.251 393.765 113.166C390.359 113.081 386.917 113.007 383.432 112.933C379.943 112.848 377.042 112.773 374.724 112.699C372.401 112.614 371.245 112.571 371.245 112.571Z" fill="black"/>
<mask id="mask6_630_3409" style="mask-type:luminance" maskUnits="userSpaceOnUse" x="63" y="160" width="417" height="71">
<path d="M63 195.861C63 176.54 78.6635 160.876 97.9855 160.876H445.015C464.336 160.876 480 176.54 480 195.861V195.861C480 215.183 464.336 230.847 445.015 230.847H97.9855C78.6635 230.847 63 215.183 63 195.861V195.861Z" fill="white"/>
</mask>
<g mask="url(#mask6_630_3409)">
<path d="M63 195.861C63 176.54 78.6635 160.876 97.9855 160.876H445.081C464.403 160.876 480.066 176.54 480.066 195.861V195.861C480.066 215.183 464.403 230.847 445.081 230.847H97.9855C78.6635 230.847 63 215.183 63 195.861V195.861Z" fill="white"/>
</g>
<path d="M88.9165 196.335C90.1717 196.335 91.0676 196.006 91.604 195.358C92.1457 194.704 92.4217 193.801 92.4217 192.638H93.1717C93.1717 193.286 93.1665 193.838 93.1509 194.295C93.1405 194.747 93.1248 195.135 93.1092 195.459C93.0988 195.788 93.0832 196.064 93.0728 196.293C93.0571 196.521 93.0519 196.75 93.0519 196.978C93.0519 197.207 93.0571 197.424 93.0728 197.642C93.0832 197.849 93.0988 198.11 93.1092 198.423C93.1248 198.731 93.1405 199.108 93.1509 199.555C93.1665 199.99 93.1717 200.532 93.1717 201.186H92.4217C92.4217 200.081 92.1457 199.204 91.604 198.556C91.0676 197.897 90.1717 197.568 88.9165 197.568H86.505V206.116C86.505 207.141 86.5728 207.959 86.7082 208.57C86.8488 209.176 87.1196 209.633 87.5207 209.93C87.9269 210.228 88.4842 210.419 89.1926 210.509C89.9061 210.594 90.828 210.637 91.9634 210.637C92.9634 210.637 93.8905 210.573 94.7394 210.451C95.5884 210.318 96.3384 210.052 96.9894 209.659C97.6457 209.255 98.1769 208.682 98.5884 207.933C99.0103 207.178 99.2811 206.179 99.3957 204.931H100.177L99.854 211.694C98.5988 211.72 97.453 211.742 96.4217 211.758C95.3957 211.768 94.3123 211.779 93.1717 211.779C90.8123 211.779 88.8332 211.742 87.2446 211.673C85.6665 211.603 84.4269 211.572 83.5415 211.572C83.0988 211.572 82.6769 211.577 82.2655 211.593C81.8644 211.603 81.4373 211.619 80.9738 211.63C80.5207 211.646 79.9894 211.662 79.3853 211.673C78.7863 211.688 78.0728 211.694 77.2446 211.694V210.923C77.6873 210.923 78.1092 210.892 78.5103 210.823C78.9165 210.753 79.2759 210.615 79.578 210.419C79.8853 210.217 80.1248 209.941 80.3019 209.585C80.4842 209.234 80.578 208.756 80.578 208.161V186.768C80.578 186.173 80.4842 185.7 80.3019 185.344C80.1248 184.983 79.8853 184.706 79.578 184.515C79.2759 184.313 78.9165 184.175 78.5103 184.106C78.1092 184.037 77.6873 184.005 77.2446 184.005V183.235C78.0728 183.235 78.7811 183.24 79.3644 183.256C79.9478 183.272 80.4634 183.282 80.9113 183.298C81.3592 183.314 81.7759 183.325 82.1665 183.341C82.5519 183.352 82.9686 183.362 83.4165 183.362C84.3592 183.362 85.578 183.32 87.0623 183.235C88.5519 183.144 90.13 183.102 91.7967 183.102C92.8853 183.102 93.8905 183.118 94.8228 183.155C95.7551 183.182 96.7759 183.208 97.8853 183.235L98.1405 189.573H97.3905C97.3071 188.489 97.0884 187.607 96.7394 186.911C96.3905 186.22 95.9269 185.678 95.3436 185.28C94.7603 184.882 94.0676 184.611 93.2759 184.473C92.4894 184.324 91.604 184.255 90.6248 184.255C90.1613 184.255 89.6092 184.276 88.979 184.318C88.354 184.356 87.8488 184.409 87.4582 184.473C86.8228 184.552 86.505 184.935 86.505 185.615V196.335H88.9165ZM114.739 183.235C115.568 183.235 116.281 183.24 116.88 183.256C117.484 183.272 118.01 183.282 118.469 183.298C118.927 183.314 119.359 183.325 119.76 183.341C120.167 183.352 120.604 183.362 121.073 183.362C121.521 183.362 122.021 183.346 122.578 183.32C123.135 183.293 123.713 183.261 124.312 183.235C124.906 183.208 125.5 183.182 126.083 183.155C126.667 183.118 127.208 183.102 127.703 183.102C129.818 183.102 131.776 183.421 133.568 184.069C135.359 184.706 136.906 185.625 138.208 186.831C139.521 188.032 140.547 189.514 141.297 191.273C142.047 193.031 142.427 195.034 142.427 197.27C142.427 201.951 141.208 205.537 138.771 208.039C136.338 210.53 132.792 211.779 128.12 211.779C127.625 211.779 127.068 211.763 126.448 211.736C125.838 211.71 125.219 211.688 124.594 211.673C123.974 211.662 123.354 211.641 122.745 211.609C122.13 211.582 121.573 211.572 121.073 211.572C120.604 211.572 120.172 211.577 119.781 211.593C119.39 211.603 118.969 211.619 118.505 211.63C118.052 211.646 117.526 211.662 116.927 211.673C116.333 211.688 115.599 211.694 114.739 211.694V210.923C115.182 210.923 115.599 210.892 116 210.823C116.411 210.753 116.765 210.615 117.073 210.419C117.375 210.217 117.62 209.941 117.792 209.585C117.979 209.234 118.068 208.756 118.068 208.161V186.768C118.068 186.173 117.979 185.7 117.792 185.344C117.62 184.983 117.375 184.706 117.073 184.515C116.765 184.313 116.411 184.175 116 184.106C115.599 184.037 115.182 184.005 114.739 184.005V183.235ZM123.995 206.169C123.995 206.96 124.031 207.635 124.099 208.203C124.167 208.772 124.318 209.234 124.557 209.585C124.792 209.941 125.151 210.201 125.635 210.376C126.125 210.546 126.786 210.637 127.62 210.637C129.146 210.637 130.443 210.307 131.5 209.659C132.557 209 133.422 208.097 134.088 206.95C134.75 205.797 135.229 204.442 135.521 202.886C135.812 201.329 135.958 199.629 135.958 197.786C135.958 196.027 135.812 194.343 135.521 192.728C135.229 191.108 134.745 189.673 134.068 188.43C133.385 187.177 132.5 186.173 131.396 185.429C130.297 184.674 128.943 184.297 127.333 184.297C126.943 184.297 126.614 184.303 126.349 184.318C126.083 184.329 125.672 184.366 125.114 184.419C124.781 184.483 124.51 184.616 124.302 184.813C124.099 185.009 123.995 185.36 123.995 185.875V206.169ZM182.922 201.526C182.922 203.422 182.677 205.048 182.187 206.397C181.703 207.747 181.01 208.846 180.109 209.702C179.208 210.546 178.12 211.168 176.849 211.572C175.588 211.965 174.167 212.161 172.583 212.161C171.245 212.161 169.875 212.039 168.469 211.8C167.062 211.556 165.786 211.067 164.63 210.334C163.479 209.595 162.536 208.538 161.812 207.168C161.088 205.786 160.729 203.964 160.729 201.69V186.768C160.729 186.173 160.64 185.7 160.458 185.344C160.281 184.983 160.036 184.706 159.734 184.515C159.427 184.313 159.073 184.175 158.667 184.106C158.265 184.037 157.844 184.005 157.401 184.005V183.235C158.229 183.235 158.917 183.24 159.458 183.256C160 183.272 160.479 183.293 160.896 183.32C161.312 183.346 161.698 183.367 162.047 183.383C162.39 183.394 162.802 183.399 163.276 183.399C163.724 183.399 164.172 183.394 164.609 183.383C165.057 183.367 165.542 183.346 166.068 183.32C166.599 183.293 167.172 183.272 167.797 183.256C168.427 183.24 169.161 183.235 170 183.235V184.005C169.547 184.005 169.12 184.037 168.713 184.106C168.312 184.175 167.963 184.313 167.656 184.515C167.349 184.706 167.104 184.983 166.922 185.344C166.745 185.7 166.656 186.173 166.656 186.768V201.69C166.656 203.141 166.765 204.416 166.984 205.526C167.208 206.631 167.588 207.566 168.135 208.32C168.677 209.064 169.411 209.643 170.344 210.042C171.281 210.44 172.458 210.637 173.875 210.637C176.427 210.637 178.375 209.834 179.713 208.235C181.047 206.631 181.719 204.448 181.719 201.69V186.768C181.719 186.173 181.625 185.7 181.443 185.344C181.26 184.983 181.016 184.706 180.708 184.515C180.406 184.313 180.047 184.175 179.641 184.106C179.239 184.037 178.818 184.005 178.38 184.005V183.235C178.932 183.235 179.391 183.24 179.75 183.256C180.114 183.272 180.432 183.282 180.708 183.298C180.989 183.314 181.255 183.325 181.505 183.341C181.755 183.352 182.031 183.362 182.338 183.362C182.646 183.362 182.917 183.352 183.151 183.341C183.391 183.325 183.651 183.314 183.927 183.298C184.208 183.282 184.526 183.272 184.885 183.256C185.245 183.24 185.703 183.235 186.26 183.235V184.005C185.812 184.005 185.385 184.037 184.984 184.106C184.583 184.175 184.234 184.313 183.927 184.515C183.62 184.706 183.375 184.983 183.193 185.344C183.01 185.7 182.922 186.173 182.922 186.768V201.526ZM200.604 210.923C201.047 210.923 201.469 210.892 201.87 210.823C202.276 210.753 202.635 210.615 202.937 210.419C203.245 210.217 203.484 209.941 203.661 209.585C203.844 209.234 203.937 208.756 203.937 208.161V186.768C203.937 186.173 203.844 185.7 203.661 185.344C203.484 184.983 203.245 184.706 202.937 184.515C202.635 184.313 202.276 184.175 201.87 184.106C201.469 184.037 201.047 184.005 200.604 184.005V183.235C202.271 183.235 203.568 183.251 204.495 183.277C205.432 183.304 206.25 183.32 206.943 183.32C207.271 183.32 207.667 183.304 208.12 183.277C208.583 183.251 209.068 183.229 209.568 183.213C210.068 183.203 210.568 183.182 211.062 183.155C211.568 183.118 212.042 183.102 212.489 183.102C213.739 183.102 214.995 183.208 216.255 183.421C217.526 183.638 218.667 184.01 219.677 184.536C220.698 185.052 221.526 185.779 222.161 186.704C222.802 187.628 223.12 188.808 223.12 190.258C223.12 191.899 222.807 193.254 222.182 194.317C221.557 195.379 220.745 196.229 219.739 196.872C218.739 197.509 217.609 197.956 216.338 198.211C215.078 198.46 213.807 198.588 212.531 198.588C212 198.588 211.542 198.577 211.146 198.567C210.76 198.551 210.333 198.519 209.864 198.46V208.161C209.864 208.756 209.953 209.234 210.125 209.585C210.312 209.941 210.557 210.217 210.859 210.419C211.167 210.615 211.521 210.753 211.922 210.823C212.328 210.892 212.755 210.923 213.203 210.923V211.694C212.37 211.694 211.651 211.688 211.052 211.673C210.458 211.662 209.922 211.641 209.448 211.609C208.969 211.582 208.521 211.561 208.099 211.55C207.687 211.534 207.26 211.529 206.818 211.529C206.344 211.529 205.911 211.534 205.526 211.55C205.141 211.561 204.719 211.582 204.271 211.609C203.823 211.641 203.307 211.662 202.724 211.673C202.141 211.688 201.437 211.694 200.604 211.694V210.923ZM209.864 197.318C210.448 197.403 211.042 197.446 211.656 197.446C212.687 197.446 213.526 197.281 214.182 196.957C214.833 196.633 215.349 196.165 215.739 195.554C216.13 194.943 216.401 194.216 216.552 193.36C216.708 192.51 216.786 191.559 216.786 190.508C216.786 189.716 216.708 188.946 216.552 188.191C216.401 187.437 216.141 186.768 215.76 186.183C215.385 185.604 214.885 185.137 214.26 184.781C213.635 184.43 212.854 184.255 211.911 184.255C211.354 184.255 210.87 184.345 210.463 184.536C210.062 184.712 209.864 185.147 209.864 185.833V197.318ZM254.031 211.779C252.109 211.779 250.338 211.742 248.724 211.673C247.114 211.603 245.807 211.572 244.807 211.572C244.338 211.572 243.891 211.577 243.469 211.593C243.057 211.603 242.604 211.619 242.114 211.63C241.635 211.646 241.094 211.662 240.489 211.673C239.891 211.688 239.177 211.694 238.349 211.694V210.923C238.792 210.923 239.213 210.892 239.609 210.823C240.021 210.753 240.375 210.615 240.682 210.419C240.984 210.217 241.229 209.941 241.406 209.585C241.588 209.234 241.677 208.756 241.677 208.161V186.768C241.677 186.173 241.588 185.7 241.406 185.344C241.229 184.983 240.984 184.706 240.682 184.515C240.375 184.313 240.021 184.175 239.609 184.106C239.213 184.037 238.792 184.005 238.349 184.005V183.235C239.177 183.235 239.885 183.24 240.469 183.256C241.052 183.272 241.578 183.293 242.057 183.32C242.531 183.346 242.963 183.367 243.349 183.383C243.734 183.394 244.167 183.399 244.641 183.399C245.088 183.399 245.516 183.394 245.917 183.383C246.318 183.367 246.755 183.346 247.229 183.32C247.703 183.293 248.234 183.272 248.818 183.256C249.401 183.24 250.109 183.235 250.943 183.235V184.005C250.495 184.005 250.068 184.037 249.661 184.106C249.26 184.175 248.906 184.313 248.604 184.515C248.297 184.706 248.052 184.983 247.87 185.344C247.693 185.7 247.604 186.173 247.604 186.768V206.886C247.604 207.763 247.739 208.453 248 208.953C248.266 209.447 248.646 209.818 249.141 210.073C249.646 210.328 250.25 210.488 250.953 210.552C251.667 210.605 252.469 210.637 253.359 210.637C255.391 210.637 256.984 210.212 258.156 209.356C259.323 208.506 260.057 206.96 260.364 204.713H261.12L260.698 211.694C259.641 211.72 258.526 211.742 257.359 211.758C256.193 211.768 255.083 211.779 254.031 211.779ZM289.604 200.506H281.713L279.125 207.693C279.047 207.954 278.979 208.203 278.922 208.443C278.87 208.676 278.844 208.899 278.844 209.096C278.844 209.494 278.917 209.813 279.068 210.052C279.224 210.297 279.427 210.483 279.677 210.615C279.927 210.738 280.208 210.823 280.51 210.865C280.818 210.908 281.125 210.923 281.427 210.923V211.694C280.844 211.694 280.349 211.688 279.943 211.673C279.542 211.662 279.187 211.646 278.88 211.63C278.578 211.619 278.297 211.603 278.047 211.593C277.797 211.577 277.531 211.572 277.255 211.572C276.948 211.572 276.687 211.577 276.479 211.593C276.276 211.603 276.047 211.619 275.797 211.63C275.547 211.646 275.234 211.662 274.87 211.673C274.51 211.688 274.057 211.694 273.505 211.694V210.923C275.588 210.923 277.021 209.861 277.792 207.736L287.016 182.688H288.474L298.229 207.693C298.703 208.942 299.24 209.792 299.838 210.249C300.437 210.7 301.234 210.923 302.24 210.923V211.694C301.406 211.694 300.693 211.688 300.094 211.673C299.495 211.662 298.958 211.646 298.484 211.63C298.01 211.619 297.573 211.603 297.172 211.593C296.771 211.577 296.359 211.572 295.937 211.572C295.526 211.572 295.141 211.577 294.786 211.593C294.443 211.603 294.047 211.619 293.594 211.63C293.156 211.646 292.641 211.662 292.057 211.673C291.474 211.688 290.74 211.694 289.849 211.694V210.923C290.182 210.923 290.505 210.908 290.828 210.865C291.151 210.823 291.437 210.738 291.682 210.615C291.932 210.483 292.141 210.307 292.302 210.084C292.474 209.856 292.557 209.553 292.557 209.181C292.557 208.868 292.516 208.565 292.437 208.267C292.354 207.97 292.255 207.678 292.141 207.396L289.604 200.506ZM282.172 199.316H289.187L285.635 189.79L282.172 199.316ZM315.958 210.923C316.401 210.923 316.823 210.892 317.224 210.823C317.63 210.753 317.984 210.615 318.292 210.419C318.599 210.217 318.838 209.941 319.016 209.585C319.198 209.234 319.292 208.756 319.292 208.161V186.853L318.375 185.657C317.984 185.153 317.562 184.749 317.099 184.451C316.646 184.154 316.057 184.005 315.328 184.005V183.235C315.833 183.235 316.26 183.24 316.62 183.256C316.984 183.272 317.307 183.282 317.599 183.298C317.891 183.314 318.156 183.325 318.396 183.341C318.63 183.352 318.901 183.362 319.208 183.362C319.766 183.362 320.463 183.341 321.297 183.298C322.13 183.256 322.88 183.235 323.547 183.235L339.646 203.353V186.768C339.646 186.173 339.552 185.7 339.37 185.344C339.193 184.983 338.953 184.706 338.646 184.515C338.344 184.313 337.984 184.175 337.578 184.106C337.177 184.037 336.755 184.005 336.307 184.005V183.235C336.865 183.235 337.312 183.24 337.661 183.256C338.01 183.272 338.312 183.282 338.557 183.298C338.807 183.314 339.047 183.325 339.271 183.341C339.495 183.352 339.755 183.362 340.062 183.362C340.37 183.362 340.651 183.352 340.917 183.341C341.182 183.325 341.463 183.314 341.755 183.298C342.047 183.282 342.385 183.272 342.771 183.256C343.167 183.24 343.635 183.235 344.187 183.235V184.005C343.745 184.005 343.323 184.037 342.917 184.106C342.516 184.175 342.161 184.313 341.854 184.515C341.552 184.706 341.307 184.983 341.12 185.344C340.948 185.7 340.859 186.173 340.859 186.768V212.204H339.562L320.5 188.17V208.161C320.5 208.756 320.588 209.234 320.766 209.585C320.948 209.941 321.193 210.217 321.5 210.419C321.807 210.615 322.156 210.753 322.557 210.823C322.969 210.892 323.396 210.923 323.844 210.923V211.694C323.286 211.694 322.812 211.688 322.417 211.673C322.031 211.662 321.682 211.646 321.38 211.63C321.073 211.619 320.786 211.603 320.521 211.593C320.255 211.577 319.974 211.572 319.667 211.572C319.359 211.572 319.099 211.577 318.875 211.593C318.651 211.603 318.411 211.619 318.161 211.63C317.917 211.646 317.625 211.662 317.286 211.673C316.953 211.688 316.51 211.694 315.958 211.694V210.923ZM359.458 210.923C359.896 210.923 360.318 210.892 360.719 210.823C361.125 210.753 361.484 210.615 361.786 210.419C362.094 210.217 362.333 209.941 362.51 209.585C362.693 209.234 362.786 208.756 362.786 208.161V186.853L361.87 185.657C361.484 185.153 361.057 184.749 360.599 184.451C360.141 184.154 359.552 184.005 358.828 184.005V183.235C359.328 183.235 359.76 183.24 360.12 183.256C360.479 183.272 360.802 183.282 361.099 183.298C361.391 183.314 361.651 183.325 361.891 183.341C362.13 183.352 362.401 183.362 362.703 183.362C363.26 183.362 363.958 183.341 364.792 183.298C365.63 183.256 366.38 183.235 367.042 183.235L383.141 203.353V186.768C383.141 186.173 383.052 185.7 382.87 185.344C382.693 184.983 382.448 184.706 382.146 184.515C381.838 184.313 381.484 184.175 381.073 184.106C380.677 184.037 380.25 184.005 379.802 184.005V183.235C380.359 183.235 380.812 183.24 381.156 183.256C381.51 183.272 381.807 183.282 382.052 183.298C382.302 183.314 382.542 183.325 382.766 183.341C382.99 183.352 383.255 183.362 383.557 183.362C383.865 183.362 384.151 183.352 384.417 183.341C384.682 183.325 384.958 183.314 385.25 183.298C385.542 183.282 385.88 183.272 386.271 183.256C386.661 183.24 387.135 183.235 387.682 183.235V184.005C387.245 184.005 386.818 184.037 386.411 184.106C386.01 184.175 385.656 184.313 385.354 184.515C385.047 184.706 384.802 184.983 384.62 185.344C384.443 185.7 384.354 186.173 384.354 186.768V212.204H383.062L364 188.17V208.161C364 208.756 364.088 209.234 364.266 209.585C364.448 209.941 364.693 210.217 364.995 210.419C365.302 210.615 365.656 210.753 366.057 210.823C366.463 210.892 366.891 210.923 367.338 210.923V211.694C366.781 211.694 366.307 211.688 365.911 211.673C365.526 211.662 365.182 211.646 364.875 211.63C364.568 211.619 364.281 211.603 364.021 211.593C363.755 211.577 363.469 211.572 363.161 211.572C362.859 211.572 362.594 211.577 362.37 211.593C362.146 211.603 361.906 211.619 361.656 211.63C361.411 211.646 361.12 211.662 360.781 211.673C360.448 211.688 360.005 211.694 359.458 211.694V210.923ZM414.203 196.335C415.463 196.335 416.359 196.006 416.896 195.358C417.437 194.704 417.708 193.801 417.708 192.638H418.464C418.464 193.286 418.453 193.838 418.443 194.295C418.427 194.747 418.417 195.135 418.401 195.459C418.385 195.788 418.375 196.064 418.359 196.293C418.349 196.521 418.339 196.75 418.339 196.978C418.339 197.207 418.349 197.424 418.359 197.642C418.375 197.849 418.385 198.11 418.401 198.423C418.417 198.731 418.427 199.108 418.443 199.555C418.453 199.99 418.464 200.532 418.464 201.186H417.708C417.708 200.081 417.437 199.204 416.896 198.556C416.359 197.897 415.463 197.568 414.203 197.568H411.792V206.116C411.792 207.141 411.859 207.959 411.995 208.57C412.141 209.176 412.411 209.633 412.812 209.93C413.219 210.228 413.776 210.419 414.479 210.509C415.193 210.594 416.115 210.637 417.25 210.637C418.255 210.637 419.182 210.573 420.031 210.451C420.88 210.318 421.63 210.052 422.281 209.659C422.932 209.255 423.464 208.682 423.88 207.933C424.302 207.178 424.568 206.179 424.682 204.931H425.469L425.141 211.694C423.885 211.72 422.745 211.742 421.708 211.758C420.687 211.768 419.604 211.779 418.464 211.779C416.099 211.779 414.125 211.742 412.536 211.673C410.953 211.603 409.719 211.572 408.828 211.572C408.385 211.572 407.964 211.577 407.557 211.593C407.156 211.603 406.724 211.619 406.266 211.63C405.807 211.646 405.281 211.662 404.677 211.673C404.078 211.688 403.365 211.694 402.536 211.694V210.923C402.979 210.923 403.401 210.892 403.797 210.823C404.208 210.753 404.562 210.615 404.87 210.419C405.172 210.217 405.417 209.941 405.589 209.585C405.776 209.234 405.865 208.756 405.865 208.161V186.768C405.865 186.173 405.776 185.7 405.589 185.344C405.417 184.983 405.172 184.706 404.87 184.515C404.562 184.313 404.208 184.175 403.797 184.106C403.401 184.037 402.979 184.005 402.536 184.005V183.235C403.365 183.235 404.073 183.24 404.656 183.256C405.24 183.272 405.755 183.282 406.203 183.298C406.651 183.314 407.068 183.325 407.453 183.341C407.844 183.352 408.26 183.362 408.708 183.362C409.651 183.362 410.865 183.32 412.354 183.235C413.838 183.144 415.417 183.102 417.089 183.102C418.172 183.102 419.182 183.118 420.109 183.155C421.042 183.182 422.062 183.208 423.177 183.235L423.432 189.573H422.677C422.594 188.489 422.38 187.607 422.026 186.911C421.682 186.22 421.213 185.678 420.63 185.28C420.047 184.882 419.359 184.611 418.562 184.473C417.776 184.324 416.896 184.255 415.917 184.255C415.448 184.255 414.896 184.276 414.266 184.318C413.641 184.356 413.135 184.409 412.75 184.473C412.109 184.552 411.792 184.935 411.792 185.615V196.335H414.203ZM440.026 183.235C440.854 183.235 441.578 183.24 442.187 183.256C442.807 183.272 443.354 183.277 443.839 183.277C444.323 183.277 444.771 183.282 445.172 183.298C445.578 183.314 446 183.32 446.443 183.32C447.172 183.32 448.078 183.282 449.172 183.213C450.271 183.139 451.406 183.102 452.573 183.102C453.661 183.102 454.812 183.187 456.036 183.362C457.266 183.532 458.396 183.878 459.438 184.388C460.484 184.892 461.344 185.625 462.021 186.582C462.708 187.527 463.052 188.781 463.052 190.338C463.052 191.331 462.859 192.239 462.479 193.063C462.109 193.886 461.609 194.603 460.984 195.209C460.359 195.82 459.63 196.309 458.797 196.675C457.958 197.042 457.073 197.286 456.125 197.403C456.594 198.025 457.182 198.806 457.891 199.741C458.604 200.676 459.354 201.664 460.151 202.7C460.943 203.73 461.755 204.782 462.583 205.845C463.417 206.907 464.214 207.874 464.964 208.756C465.604 209.494 466.208 210.042 466.776 210.398C467.349 210.748 467.979 210.923 468.672 210.923V211.694C468.063 211.694 467.562 211.688 467.177 211.673C466.786 211.662 466.448 211.646 466.156 211.63C465.865 211.619 465.599 211.603 465.365 211.593C465.125 211.577 464.839 211.572 464.505 211.572C463.807 211.572 463.099 211.593 462.38 211.63C461.661 211.673 460.896 211.694 460.089 211.694C459.224 210.589 458.453 209.553 457.766 208.591C457.089 207.624 456.422 206.684 455.771 205.765C455.12 204.835 454.458 203.895 453.786 202.949C453.12 201.998 452.37 200.984 451.536 199.905C451.12 199.374 450.786 199.018 450.536 198.848C450.286 198.673 449.922 198.588 449.448 198.588H449.286V208.161C449.286 208.756 449.375 209.234 449.547 209.585C449.734 209.941 449.979 210.217 450.281 210.419C450.589 210.615 450.943 210.753 451.344 210.823C451.75 210.892 452.177 210.923 452.625 210.923V211.694C451.792 211.694 451.089 211.688 450.516 211.673C449.948 211.662 449.443 211.641 449.01 211.609C448.583 211.582 448.172 211.561 447.776 211.55C447.391 211.534 446.974 211.529 446.536 211.529C446.062 211.529 445.609 211.534 445.193 211.55C444.776 211.561 444.323 211.582 443.839 211.609C443.354 211.641 442.807 211.662 442.187 211.673C441.578 211.688 440.854 211.694 440.026 211.694V210.923C440.469 210.923 440.891 210.892 441.292 210.823C441.698 210.753 442.057 210.615 442.359 210.419C442.667 210.217 442.906 209.941 443.083 209.585C443.266 209.234 443.359 208.756 443.359 208.161V186.768C443.359 186.173 443.266 185.7 443.083 185.344C442.906 184.983 442.667 184.706 442.359 184.515C442.057 184.313 441.698 184.175 441.292 184.106C440.891 184.037 440.469 184.005 440.026 184.005V183.235ZM449.286 197.403H451.156C452.219 197.403 453.099 197.233 453.807 196.893C454.521 196.548 455.083 196.064 455.495 195.438C455.917 194.816 456.214 194.067 456.391 193.185C456.573 192.308 456.667 191.331 456.667 190.258C456.667 189.488 456.568 188.749 456.37 188.043C456.182 187.331 455.885 186.698 455.474 186.146C455.073 185.588 454.557 185.142 453.927 184.802C453.302 184.467 452.547 184.297 451.656 184.297C451.437 184.297 451.193 184.303 450.911 184.318C450.635 184.329 450.375 184.398 450.141 184.515C449.901 184.627 449.698 184.786 449.531 185.004C449.365 185.211 449.286 185.498 449.286 185.875V197.403Z" stroke="white" stroke-width="3.12866"/>
<path d="M88.9287 196.117C90.1787 196.117 91.0745 195.793 91.6162 195.14C92.1579 194.492 92.4287 193.583 92.4287 192.42H93.1787C93.1787 193.073 93.1683 193.626 93.1579 194.077C93.1423 194.534 93.1266 194.922 93.1162 195.246C93.1006 195.576 93.085 195.852 93.0745 196.075C93.0589 196.303 93.0537 196.532 93.0537 196.755C93.0537 196.983 93.0589 197.201 93.0745 197.414C93.085 197.626 93.1006 197.892 93.1162 198.2C93.1266 198.513 93.1423 198.891 93.1579 199.326C93.1683 199.767 93.1787 200.32 93.1787 200.984H92.4287C92.4287 199.868 92.1579 198.981 91.6162 198.327C91.0745 197.679 90.1787 197.35 88.9287 197.35H86.512V205.914C86.512 206.934 86.5798 207.752 86.7204 208.357C86.8558 208.968 87.1266 209.42 87.5329 209.717C87.9339 210.015 88.4912 210.206 89.1995 210.291C89.9079 210.376 90.8298 210.419 91.9704 210.419C92.9704 210.419 93.8923 210.355 94.7412 210.227C95.585 210.1 96.335 209.84 96.9912 209.441C97.6423 209.048 98.1787 208.474 98.5954 207.72C99.012 206.971 99.2725 205.972 99.387 204.724H100.179L99.8454 211.481C98.5954 211.508 97.4548 211.529 96.4287 211.545C95.3975 211.556 94.3141 211.566 93.1787 211.566C90.8141 211.566 88.835 211.529 87.2412 211.46C85.6579 211.391 84.4183 211.354 83.5329 211.354C83.085 211.354 82.6631 211.364 82.262 211.375C81.8558 211.391 81.4287 211.407 80.9704 211.417C80.512 211.433 79.9808 211.449 79.387 211.46C78.7881 211.476 78.0745 211.481 77.2412 211.481V210.716C77.6839 210.716 78.1058 210.684 78.512 210.61C78.9131 210.541 79.2673 210.408 79.5745 210.206C79.8766 210.01 80.1214 209.733 80.3037 209.377C80.4808 209.027 80.5745 208.549 80.5745 207.954V186.555C80.5745 185.96 80.4808 185.487 80.3037 185.131C80.1214 184.781 79.8766 184.504 79.5745 184.302C79.2673 184.106 78.9131 183.973 78.512 183.899C78.1058 183.83 77.6839 183.792 77.2412 183.792V183.027C78.0745 183.027 78.7829 183.038 79.3662 183.049C79.9495 183.065 80.46 183.081 80.9079 183.091C81.3506 183.107 81.7673 183.123 82.1579 183.134C82.5433 183.15 82.96 183.155 83.4079 183.155C84.3506 183.155 85.5641 183.112 87.0537 183.027C88.5537 182.942 90.137 182.9 91.8037 182.9C92.887 182.9 93.8923 182.916 94.8245 182.942C95.7516 182.974 96.7725 183.001 97.887 183.027L98.137 189.36H97.387C97.3037 188.287 97.085 187.4 96.7412 186.704C96.3923 186.013 95.9287 185.466 95.3454 185.067C94.762 184.674 94.0745 184.403 93.2829 184.26C92.4912 184.122 91.6058 184.047 90.637 184.047C90.1631 184.047 89.6162 184.069 88.9912 184.111C88.3662 184.154 87.8558 184.207 87.4704 184.26C86.8298 184.345 86.512 184.727 86.512 185.407V196.117H88.9287Z" fill="#5E17EB"/>
<path d="M114.733 183.027C115.567 183.027 116.28 183.038 116.879 183.049C117.473 183.065 118.004 183.081 118.463 183.091C118.921 183.107 119.348 183.123 119.754 183.134C120.155 183.15 120.593 183.155 121.067 183.155C121.509 183.155 122.009 183.144 122.567 183.112C123.119 183.086 123.697 183.059 124.296 183.027C124.905 183.001 125.504 182.974 126.088 182.942C126.671 182.916 127.213 182.9 127.713 182.9C129.822 182.9 131.775 183.219 133.567 183.856C135.358 184.494 136.905 185.418 138.213 186.619C139.515 187.825 140.546 189.307 141.296 191.06C142.046 192.818 142.421 194.816 142.421 197.052C142.421 201.743 141.202 205.335 138.775 207.826C136.343 210.323 132.796 211.566 128.129 211.566C127.629 211.566 127.072 211.55 126.463 211.524C125.848 211.492 125.233 211.476 124.608 211.46C123.983 211.449 123.358 211.428 122.733 211.396C122.119 211.37 121.567 211.354 121.067 211.354C120.593 211.354 120.16 211.364 119.775 211.375C119.384 211.391 118.963 211.407 118.504 211.417C118.046 211.433 117.515 211.449 116.921 211.46C116.322 211.476 115.593 211.481 114.733 211.481V210.716C115.176 210.716 115.598 210.684 116.004 210.61C116.405 210.541 116.759 210.408 117.067 210.206C117.369 210.01 117.614 209.733 117.796 209.377C117.973 209.027 118.067 208.549 118.067 207.954V186.555C118.067 185.96 117.973 185.487 117.796 185.131C117.614 184.781 117.369 184.504 117.067 184.302C116.759 184.106 116.405 183.973 116.004 183.899C115.598 183.83 115.176 183.792 114.733 183.792V183.027ZM124.004 205.956C124.004 206.753 124.035 207.433 124.108 207.996C124.176 208.565 124.327 209.027 124.567 209.377C124.801 209.733 125.16 209.994 125.65 210.164C126.134 210.334 126.796 210.419 127.629 210.419C129.155 210.419 130.447 210.095 131.504 209.441C132.556 208.793 133.421 207.89 134.088 206.742C134.754 205.595 135.233 204.246 135.525 202.684C135.817 201.111 135.963 199.406 135.963 197.562C135.963 195.809 135.817 194.12 135.525 192.505C135.233 190.89 134.744 189.461 134.067 188.212C133.384 186.969 132.494 185.971 131.4 185.216C130.301 184.467 128.947 184.09 127.338 184.09C126.947 184.09 126.619 184.101 126.358 184.111C126.093 184.127 125.681 184.164 125.129 184.217C124.796 184.276 124.525 184.403 124.317 184.6C124.108 184.802 124.004 185.152 124.004 185.662V205.956Z" fill="#5E17EB"/>
<path d="M182.917 201.196C182.917 203.098 182.672 204.718 182.188 206.062C181.698 207.412 181.005 208.506 180.104 209.356C179.198 210.206 178.115 210.833 176.854 211.226C175.589 211.619 174.167 211.821 172.583 211.821C171.25 211.821 169.875 211.699 168.458 211.46C167.052 211.221 165.776 210.732 164.625 209.994C163.469 209.261 162.531 208.203 161.813 206.827C161.089 205.457 160.729 203.635 160.729 201.366V186.427C160.729 185.832 160.636 185.36 160.458 185.004C160.276 184.653 160.031 184.377 159.729 184.175C159.422 183.978 159.068 183.846 158.667 183.771C158.261 183.702 157.839 183.665 157.396 183.665V182.9C158.229 182.9 158.917 182.911 159.458 182.921C160 182.937 160.479 182.958 160.896 182.985C161.313 183.017 161.693 183.038 162.042 183.049C162.386 183.065 162.797 183.07 163.271 183.07C163.714 183.07 164.156 183.065 164.604 183.049C165.047 183.038 165.531 183.017 166.063 182.985C166.604 182.958 167.188 182.937 167.813 182.921C168.438 182.911 169.167 182.9 170 182.9V183.665C169.552 183.665 169.13 183.702 168.729 183.771C168.323 183.846 167.969 183.978 167.667 184.175C167.36 184.377 167.11 184.653 166.917 185.004C166.735 185.36 166.646 185.832 166.646 186.427V201.366C166.646 202.811 166.755 204.086 166.979 205.191C167.214 206.296 167.604 207.226 168.146 207.975C168.688 208.729 169.422 209.303 170.354 209.696C171.281 210.095 172.458 210.291 173.875 210.291C176.427 210.291 178.375 209.494 179.708 207.89C181.042 206.291 181.708 204.118 181.708 201.366V186.427C181.708 185.832 181.615 185.36 181.438 185.004C181.255 184.653 181.011 184.377 180.708 184.175C180.401 183.978 180.047 183.846 179.646 183.771C179.24 183.702 178.818 183.665 178.375 183.665V182.9C178.927 182.9 179.386 182.911 179.75 182.921C180.11 182.937 180.427 182.953 180.708 182.964C180.985 182.98 181.25 182.996 181.5 183.006C181.75 183.022 182.026 183.027 182.333 183.027C182.636 183.027 182.906 183.022 183.146 183.006C183.38 182.996 183.636 182.98 183.917 182.964C184.193 182.953 184.511 182.937 184.875 182.921C185.235 182.911 185.693 182.9 186.25 182.9V183.665C185.802 183.665 185.38 183.702 184.979 183.771C184.573 183.846 184.219 183.978 183.917 184.175C183.61 184.377 183.365 184.653 183.188 185.004C183.005 185.36 182.917 185.832 182.917 186.427V201.196Z" fill="#5E17EB"/>
<path d="M200.601 210.716C201.043 210.716 201.465 210.684 201.871 210.61C202.272 210.541 202.627 210.408 202.934 210.206C203.236 210.01 203.481 209.733 203.663 209.377C203.84 209.027 203.934 208.549 203.934 207.954V186.555C203.934 185.96 203.84 185.487 203.663 185.131C203.481 184.781 203.236 184.504 202.934 184.302C202.627 184.106 202.272 183.973 201.871 183.899C201.465 183.83 201.043 183.792 200.601 183.792V183.027C202.267 183.027 203.564 183.043 204.496 183.07C205.424 183.102 206.236 183.112 206.934 183.112C207.267 183.112 207.663 183.102 208.121 183.07C208.58 183.043 209.059 183.022 209.559 183.006C210.069 182.996 210.58 182.974 211.08 182.942C211.58 182.916 212.049 182.9 212.496 182.9C213.746 182.9 215.002 183.006 216.267 183.219C217.528 183.431 218.668 183.803 219.684 184.324C220.694 184.85 221.522 185.572 222.163 186.491C222.799 187.416 223.121 188.595 223.121 190.04C223.121 191.687 222.809 193.036 222.184 194.099C221.559 195.161 220.746 196.011 219.746 196.649C218.746 197.286 217.611 197.732 216.351 197.987C215.085 198.242 213.814 198.37 212.538 198.37C212.007 198.37 211.549 198.365 211.163 198.349C210.772 198.338 210.34 198.301 209.871 198.242V207.954C209.871 208.549 209.96 209.027 210.142 209.377C210.319 209.733 210.564 210.01 210.871 210.206C211.174 210.408 211.528 210.541 211.934 210.61C212.335 210.684 212.757 210.716 213.205 210.716V211.481C212.371 211.481 211.653 211.476 211.059 211.46C210.46 211.449 209.918 211.428 209.434 211.396C208.96 211.37 208.517 211.348 208.101 211.332C207.684 211.322 207.252 211.311 206.809 211.311C206.335 211.311 205.903 211.322 205.517 211.332C205.127 211.348 204.71 211.37 204.267 211.396C203.819 211.428 203.309 211.449 202.726 211.46C202.142 211.476 201.434 211.481 200.601 211.481V210.716ZM209.871 197.095C210.455 197.18 211.049 197.222 211.663 197.222C212.689 197.222 213.528 197.063 214.184 196.734C214.835 196.41 215.356 195.942 215.746 195.331C216.132 194.726 216.403 193.992 216.559 193.142C216.71 192.292 216.788 191.347 216.788 190.295C216.788 189.503 216.71 188.733 216.559 187.979C216.403 187.23 216.142 186.566 215.767 185.981C215.392 185.402 214.892 184.935 214.267 184.579C213.642 184.228 212.856 184.047 211.913 184.047C211.356 184.047 210.877 184.143 210.476 184.324C210.069 184.51 209.871 184.94 209.871 185.62V197.095Z" fill="#5E17EB"/>
<path d="M254.03 211.439C252.114 211.439 250.343 211.401 248.718 211.332C247.103 211.263 245.801 211.226 244.801 211.226C244.327 211.226 243.884 211.237 243.468 211.247C243.051 211.263 242.598 211.279 242.114 211.29C241.624 211.306 241.082 211.322 240.489 211.332C239.89 211.348 239.176 211.354 238.343 211.354V210.589C238.785 210.589 239.207 210.557 239.614 210.482C240.015 210.413 240.369 210.281 240.676 210.079C240.978 209.882 241.223 209.606 241.405 209.25C241.582 208.899 241.676 208.421 241.676 207.826V186.427C241.676 185.832 241.582 185.36 241.405 185.004C241.223 184.653 240.978 184.377 240.676 184.175C240.369 183.978 240.015 183.846 239.614 183.771C239.207 183.702 238.785 183.665 238.343 183.665V182.9C239.176 182.9 239.884 182.911 240.468 182.921C241.051 182.937 241.577 182.958 242.051 182.985C242.52 183.017 242.952 183.038 243.343 183.049C243.728 183.065 244.16 183.07 244.634 183.07C245.077 183.07 245.499 183.065 245.905 183.049C246.306 183.038 246.744 183.017 247.218 182.985C247.702 182.958 248.239 182.937 248.822 182.921C249.405 182.911 250.114 182.9 250.947 182.9V183.665C250.499 183.665 250.077 183.702 249.676 183.771C249.27 183.846 248.916 183.978 248.614 184.175C248.306 184.377 248.062 184.653 247.884 185.004C247.702 185.36 247.614 185.832 247.614 186.427V206.551C247.614 207.433 247.744 208.118 248.009 208.612C248.27 209.112 248.655 209.484 249.155 209.739C249.655 209.994 250.259 210.153 250.968 210.206C251.676 210.265 252.473 210.291 253.364 210.291C255.39 210.291 256.989 209.866 258.155 209.016C259.322 208.166 260.056 206.626 260.364 204.384H261.114L260.697 211.354C259.64 211.38 258.53 211.401 257.364 211.417C256.197 211.428 255.082 211.439 254.03 211.439Z" fill="#5E17EB"/>
<path d="M289.605 200.707H281.709L279.126 207.911C279.043 208.166 278.97 208.416 278.918 208.655C278.86 208.899 278.834 209.117 278.834 209.314C278.834 209.712 278.907 210.031 279.063 210.27C279.215 210.514 279.418 210.695 279.668 210.822C279.918 210.95 280.194 211.035 280.501 211.077C280.803 211.12 281.11 211.141 281.418 211.141V211.906C280.834 211.906 280.34 211.901 279.938 211.885C279.532 211.874 279.178 211.858 278.876 211.842C278.569 211.832 278.293 211.816 278.043 211.8C277.793 211.789 277.527 211.779 277.251 211.779C276.944 211.779 276.688 211.789 276.48 211.8C276.272 211.816 276.043 211.832 275.793 211.842C275.543 211.858 275.235 211.874 274.876 211.885C274.511 211.901 274.053 211.906 273.501 211.906V211.141C275.584 211.141 277.011 210.079 277.793 207.954L287.022 182.9H288.48L298.23 207.911C298.699 209.16 299.235 210.01 299.834 210.461C300.428 210.918 301.23 211.141 302.23 211.141V211.906C301.397 211.906 300.678 211.901 300.084 211.885C299.485 211.874 298.949 211.858 298.48 211.842C298.006 211.832 297.569 211.816 297.168 211.8C296.761 211.789 296.355 211.779 295.938 211.779C295.522 211.779 295.136 211.789 294.793 211.8C294.444 211.816 294.048 211.832 293.605 211.842C293.157 211.858 292.647 211.874 292.063 211.885C291.48 211.901 290.741 211.906 289.855 211.906V211.141C290.188 211.141 290.511 211.12 290.834 211.077C291.152 211.035 291.438 210.95 291.688 210.822C291.938 210.695 292.147 210.52 292.313 210.291C292.48 210.068 292.563 209.771 292.563 209.399C292.563 209.091 292.522 208.782 292.438 208.485C292.355 208.187 292.256 207.901 292.147 207.614L289.605 200.707ZM282.168 199.517H289.188L285.647 189.997L282.168 199.517Z" fill="#5E17EB"/>
<path d="M315.954 210.589C316.396 210.589 316.818 210.557 317.224 210.482C317.625 210.413 317.98 210.281 318.287 210.079C318.589 209.882 318.834 209.606 319.016 209.25C319.193 208.899 319.287 208.421 319.287 207.826V186.512L318.37 185.322C317.98 184.812 317.558 184.409 317.099 184.111C316.641 183.814 316.047 183.665 315.329 183.665V182.9C315.829 182.9 316.256 182.911 316.62 182.921C316.98 182.937 317.308 182.953 317.599 182.964C317.891 182.98 318.152 182.996 318.391 183.006C318.625 183.022 318.896 183.027 319.204 183.027C319.756 183.027 320.454 183.006 321.287 182.964C322.12 182.921 322.87 182.9 323.537 182.9L339.641 203.024V186.427C339.641 185.832 339.547 185.36 339.37 185.004C339.188 184.653 338.943 184.377 338.641 184.175C338.334 183.978 337.98 183.846 337.579 183.771C337.172 183.702 336.75 183.665 336.308 183.665V182.9C336.86 182.9 337.313 182.911 337.662 182.921C338.006 182.937 338.308 182.953 338.558 182.964C338.808 182.98 339.042 182.996 339.266 183.006C339.485 183.022 339.75 183.027 340.058 183.027C340.36 183.027 340.646 183.022 340.912 183.006C341.172 182.996 341.454 182.98 341.745 182.964C342.037 182.953 342.375 182.937 342.766 182.921C343.152 182.911 343.625 182.9 344.183 182.9V183.665C343.735 183.665 343.313 183.702 342.912 183.771C342.506 183.846 342.152 183.978 341.849 184.175C341.542 184.377 341.297 184.653 341.12 185.004C340.938 185.36 340.849 185.832 340.849 186.427V211.864H339.558L320.495 187.83V207.826C320.495 208.421 320.584 208.899 320.766 209.25C320.943 209.606 321.188 209.882 321.495 210.079C321.797 210.281 322.152 210.413 322.558 210.482C322.959 210.557 323.381 210.589 323.829 210.589V211.354C323.271 211.354 322.797 211.348 322.412 211.332C322.021 211.322 321.672 211.306 321.37 211.29C321.063 211.279 320.777 211.263 320.516 211.247C320.25 211.237 319.964 211.226 319.662 211.226C319.355 211.226 319.089 211.237 318.87 211.247C318.646 211.263 318.412 211.279 318.162 211.29C317.912 211.306 317.62 211.322 317.287 211.332C316.954 211.348 316.506 211.354 315.954 211.354V210.589Z" fill="#5E17EB"/>
<path d="M359.45 210.589C359.893 210.589 360.315 210.557 360.721 210.482C361.122 210.413 361.476 210.281 361.784 210.079C362.086 209.882 362.33 209.606 362.513 209.25C362.69 208.899 362.784 208.421 362.784 207.826V186.512L361.867 185.322C361.476 184.812 361.054 184.409 360.596 184.111C360.138 183.814 359.544 183.665 358.825 183.665V182.9C359.325 182.9 359.752 182.911 360.117 182.921C360.476 182.937 360.804 182.953 361.096 182.964C361.388 182.98 361.648 182.996 361.888 183.006C362.122 183.022 362.393 183.027 362.7 183.027C363.252 183.027 363.95 183.006 364.784 182.964C365.617 182.921 366.367 182.9 367.034 182.9L383.138 203.024V186.427C383.138 185.832 383.044 185.36 382.867 185.004C382.685 184.653 382.44 184.377 382.138 184.175C381.83 183.978 381.476 183.846 381.075 183.771C380.669 183.702 380.247 183.665 379.804 183.665V182.9C380.356 182.9 380.81 182.911 381.159 182.921C381.502 182.937 381.804 182.953 382.054 182.964C382.304 182.98 382.539 182.996 382.763 183.006C382.981 183.022 383.247 183.027 383.554 183.027C383.856 183.027 384.143 183.022 384.409 183.006C384.669 182.996 384.95 182.98 385.242 182.964C385.534 182.953 385.872 182.937 386.263 182.921C386.648 182.911 387.122 182.9 387.679 182.9V183.665C387.231 183.665 386.81 183.702 386.409 183.771C386.002 183.846 385.648 183.978 385.346 184.175C385.039 184.377 384.794 184.653 384.617 185.004C384.435 185.36 384.346 185.832 384.346 186.427V211.864H383.054L363.992 187.83V207.826C363.992 208.421 364.08 208.899 364.263 209.25C364.44 209.606 364.685 209.882 364.992 210.079C365.294 210.281 365.648 210.413 366.054 210.482C366.455 210.557 366.877 210.589 367.325 210.589V211.354C366.768 211.354 366.294 211.348 365.909 211.332C365.518 211.322 365.169 211.306 364.867 211.29C364.56 211.279 364.273 211.263 364.013 211.247C363.747 211.237 363.461 211.226 363.159 211.226C362.851 211.226 362.586 211.237 362.367 211.247C362.143 211.263 361.909 211.279 361.659 211.29C361.409 211.306 361.117 211.322 360.784 211.332C360.45 211.348 360.002 211.354 359.45 211.354V210.589Z" fill="#5E17EB"/>
<path d="M414.218 196.117C415.468 196.117 416.364 195.793 416.905 195.14C417.447 194.492 417.718 193.583 417.718 192.42H418.468C418.468 193.073 418.457 193.626 418.447 194.077C418.431 194.534 418.416 194.922 418.405 195.246C418.39 195.576 418.374 195.852 418.364 196.075C418.348 196.303 418.343 196.532 418.343 196.755C418.343 196.983 418.348 197.201 418.364 197.414C418.374 197.626 418.39 197.892 418.405 198.2C418.416 198.513 418.431 198.891 418.447 199.326C418.457 199.767 418.468 200.32 418.468 200.984H417.718C417.718 199.868 417.447 198.981 416.905 198.327C416.364 197.679 415.468 197.35 414.218 197.35H411.801V205.914C411.801 206.934 411.869 207.752 412.009 208.357C412.145 208.968 412.416 209.42 412.822 209.717C413.223 210.015 413.78 210.206 414.489 210.291C415.197 210.376 416.119 210.419 417.259 210.419C418.259 210.419 419.181 210.355 420.03 210.227C420.874 210.1 421.624 209.84 422.28 209.441C422.931 209.048 423.468 208.474 423.884 207.72C424.301 206.971 424.562 205.972 424.676 204.724H425.468L425.134 211.481C423.884 211.508 422.744 211.529 421.718 211.545C420.687 211.556 419.603 211.566 418.468 211.566C416.103 211.566 414.124 211.529 412.53 211.46C410.947 211.391 409.707 211.354 408.822 211.354C408.374 211.354 407.952 211.364 407.551 211.375C407.145 211.391 406.718 211.407 406.259 211.417C405.801 211.433 405.27 211.449 404.676 211.46C404.077 211.476 403.364 211.481 402.53 211.481V210.716C402.973 210.716 403.395 210.684 403.801 210.61C404.202 210.541 404.556 210.408 404.864 210.206C405.166 210.01 405.41 209.733 405.593 209.377C405.77 209.027 405.864 208.549 405.864 207.954V186.555C405.864 185.96 405.77 185.487 405.593 185.131C405.41 184.781 405.166 184.504 404.864 184.302C404.556 184.106 404.202 183.973 403.801 183.899C403.395 183.83 402.973 183.792 402.53 183.792V183.027C403.364 183.027 404.072 183.038 404.655 183.049C405.239 183.065 405.749 183.081 406.197 183.091C406.64 183.107 407.056 183.123 407.447 183.134C407.832 183.15 408.249 183.155 408.697 183.155C409.64 183.155 410.853 183.112 412.343 183.027C413.843 182.942 415.426 182.9 417.093 182.9C418.176 182.9 419.181 182.916 420.114 182.942C421.041 182.974 422.062 183.001 423.176 183.027L423.426 189.36H422.676C422.593 188.287 422.374 187.4 422.03 186.704C421.681 186.013 421.218 185.466 420.634 185.067C420.051 184.674 419.364 184.403 418.572 184.26C417.78 184.122 416.895 184.047 415.926 184.047C415.452 184.047 414.905 184.069 414.28 184.111C413.655 184.154 413.145 184.207 412.759 184.26C412.119 184.345 411.801 184.727 411.801 185.407V196.117H414.218Z" fill="#5E17EB"/>
<path d="M440.022 183.027C440.856 183.027 441.575 183.038 442.189 183.049C442.799 183.065 443.345 183.07 443.835 183.07C444.319 183.07 444.762 183.081 445.168 183.091C445.569 183.107 445.991 183.112 446.439 183.112C447.158 183.112 448.069 183.081 449.168 183.006C450.278 182.937 451.418 182.9 452.585 182.9C453.668 182.9 454.819 182.985 456.043 183.155C457.262 183.325 458.397 183.665 459.439 184.175C460.481 184.685 461.34 185.418 462.022 186.364C462.7 187.315 463.043 188.568 463.043 190.125C463.043 191.118 462.856 192.027 462.481 192.845C462.106 193.668 461.606 194.386 460.981 194.991C460.356 195.602 459.627 196.091 458.793 196.457C457.96 196.829 457.069 197.068 456.127 197.18C456.595 197.807 457.189 198.593 457.897 199.539C458.606 200.474 459.356 201.462 460.147 202.492C460.939 203.528 461.752 204.575 462.585 205.637C463.418 206.7 464.21 207.672 464.96 208.549C465.595 209.287 466.2 209.834 466.772 210.185C467.34 210.541 467.97 210.716 468.668 210.716V211.481C468.054 211.481 467.554 211.476 467.168 211.46C466.778 211.449 466.439 211.433 466.147 211.417C465.856 211.407 465.59 211.391 465.356 211.375C465.116 211.364 464.835 211.354 464.502 211.354C463.804 211.354 463.095 211.375 462.377 211.417C461.653 211.46 460.887 211.481 460.085 211.481C459.22 210.376 458.45 209.346 457.772 208.379C457.09 207.417 456.424 206.477 455.772 205.552C455.116 204.633 454.46 203.698 453.793 202.747C453.127 201.802 452.377 200.782 451.543 199.687C451.127 199.151 450.793 198.795 450.543 198.625C450.293 198.455 449.929 198.37 449.46 198.37H449.293V207.954C449.293 208.549 449.382 209.027 449.564 209.377C449.741 209.733 449.986 210.01 450.293 210.206C450.595 210.408 450.95 210.541 451.356 210.61C451.757 210.684 452.179 210.716 452.627 210.716V211.481C451.793 211.481 451.09 211.476 450.522 211.46C449.95 211.449 449.444 211.428 449.002 211.396C448.569 211.37 448.158 211.348 447.772 211.332C447.382 211.322 446.965 211.311 446.522 211.311C446.049 211.311 445.606 211.322 445.189 211.332C444.772 211.348 444.319 211.37 443.835 211.396C443.345 211.428 442.799 211.449 442.189 211.46C441.575 211.476 440.856 211.481 440.022 211.481V210.716C440.465 210.716 440.887 210.684 441.293 210.61C441.694 210.541 442.049 210.408 442.356 210.206C442.658 210.01 442.903 209.733 443.085 209.377C443.262 209.027 443.356 208.549 443.356 207.954V186.555C443.356 185.96 443.262 185.487 443.085 185.131C442.903 184.781 442.658 184.504 442.356 184.302C442.049 184.106 441.694 183.973 441.293 183.899C440.887 183.83 440.465 183.792 440.022 183.792V183.027ZM449.293 197.18H451.168C452.22 197.18 453.106 197.01 453.814 196.67C454.522 196.33 455.085 195.852 455.502 195.225C455.918 194.603 456.215 193.854 456.397 192.972C456.575 192.096 456.668 191.118 456.668 190.04C456.668 189.275 456.569 188.542 456.377 187.83C456.179 187.123 455.882 186.491 455.481 185.939C455.075 185.386 454.564 184.94 453.939 184.6C453.314 184.26 452.554 184.09 451.668 184.09C451.444 184.09 451.194 184.101 450.918 184.111C450.637 184.127 450.382 184.191 450.147 184.302C449.908 184.419 449.71 184.579 449.543 184.791C449.377 185.004 449.293 185.296 449.293 185.662V197.18Z" fill="#5E17EB"/>
</svg>
