<svg width="48" height="48" viewBox="0 0 48 48" fill="none" xmlns="http://www.w3.org/2000/svg">
<path d="M42 6H6C5.46957 6 4.96086 6.21071 4.58579 6.58579C4.21071 6.96086 4 7.46957 4 8V40C4 40.5304 4.21071 41.0391 4.58579 41.4142C4.96086 41.7893 5.46957 42 6 42H42C42.5304 42 43.0391 41.7893 43.4142 41.4142C43.7893 41.0391 44 40.5304 44 40V8C44 7.46957 43.7893 6.96086 43.4142 6.58579C43.0391 6.21071 42.5304 6 42 6ZM24 32C22.4087 32 20.8826 31.3679 19.7574 30.2426C18.6321 29.1174 18 27.5913 18 26H8V10H40V26H30C30 27.5913 29.3679 29.1174 28.2426 30.2426C27.1174 31.3679 25.5913 32 24 32ZM32 22H26V28H22V22H16L24 13L32 22Z" fill="white"/>
</svg>
