<svg width="237" height="188" viewBox="0 0 237 188" fill="none" xmlns="http://www.w3.org/2000/svg">
<mask id="mask0_630_3859" style="mask-type:luminance" maskUnits="userSpaceOnUse" x="0" y="0" width="237" height="188">
<path d="M0 0H237V187.667H0V0Z" fill="white"/>
</mask>
<g mask="url(#mask0_630_3859)">
<path d="M237 25.8388V92.8634C237 93.2146 236.969 93.563 236.905 93.9058C236.843 94.2515 236.747 94.586 236.624 94.9093C236.5 95.2326 236.348 95.542 236.168 95.8319C235.987 96.1246 235.784 96.3949 235.554 96.643C235.325 96.8911 235.075 97.1113 234.804 97.3064C234.536 97.5015 234.25 97.666 233.951 97.8026C233.652 97.9363 233.343 98.0367 233.026 98.1064C232.707 98.1733 232.387 98.2067 232.062 98.2067C231.738 98.2067 231.418 98.1733 231.099 98.1064C230.782 98.0367 230.473 97.9363 230.174 97.8026C229.872 97.666 229.589 97.5015 229.318 97.3064C229.05 97.1113 228.8 96.8911 228.571 96.643C228.341 96.3949 228.138 96.1246 227.957 95.8319C227.777 95.542 227.625 95.2326 227.501 94.9093C227.378 94.586 227.282 94.2515 227.22 93.9058C227.156 93.563 227.125 93.2146 227.125 92.8634V25.8388C227.125 25.3621 227.102 24.8855 227.058 24.4116C227.014 23.935 226.95 23.4639 226.862 22.9957C226.777 22.5274 226.669 22.0647 226.54 21.6103C226.411 21.1532 226.264 20.7045 226.094 20.2641C225.924 19.8237 225.736 19.3916 225.53 18.9707C225.321 18.5498 225.094 18.1429 224.85 17.7443C224.605 17.3485 224.342 16.9666 224.061 16.5959C223.783 16.228 223.486 15.874 223.174 15.5367C222.863 15.1994 222.535 14.8789 222.195 14.5779C221.855 14.274 221.499 13.9897 221.134 13.7249C220.768 13.4601 220.389 13.2148 220.002 12.9891C219.613 12.7633 219.214 12.5598 218.807 12.3759C218.399 12.1947 217.984 12.033 217.564 11.8936C217.142 11.7543 216.714 11.64 216.281 11.5452C215.848 11.4532 215.413 11.3808 214.975 11.3334C214.536 11.286 214.096 11.2637 213.655 11.2609H23.3449C22.9042 11.2637 22.4636 11.286 22.0255 11.3334C21.5848 11.3808 21.1493 11.4532 20.7189 11.5452C20.286 11.64 19.8582 11.7543 19.4356 11.8936C19.0156 12.033 18.6007 12.1947 18.1935 12.3759C17.7863 12.5598 17.3869 12.7633 16.9978 12.9891C16.6112 13.2148 16.2324 13.4601 15.8665 13.7249C15.498 13.9897 15.1449 14.274 14.8048 14.5779C14.4646 14.8789 14.1373 15.1994 13.8255 15.5367C13.5137 15.874 13.2173 16.228 12.939 16.5959C12.6581 16.9666 12.3953 17.3485 12.1505 17.7443C11.9057 18.1429 11.6789 18.5498 11.4702 18.9707C11.264 19.3916 11.0733 19.8237 10.9058 20.2641C10.7357 20.7045 10.5888 21.1532 10.46 21.6103C10.3311 22.0647 10.2229 22.5274 10.1379 22.9957C10.0502 23.4639 9.98581 23.935 9.942 24.4116C9.89819 24.8855 9.875 25.3621 9.875 25.8388V92.8634C9.875 93.3428 9.89819 93.8166 9.942 94.2933C9.98581 94.7671 10.0502 95.2382 10.1379 95.7065C10.2229 96.1747 10.3311 96.6374 10.46 97.0946C10.5888 97.5489 10.7357 97.9977 10.9058 98.4409C11.0733 98.8813 11.264 99.3105 11.4702 99.7314C11.6789 100.152 11.9057 100.562 12.1505 100.958C12.3953 101.354 12.6581 101.738 12.939 102.106C13.2173 102.474 13.5137 102.828 13.8255 103.165C14.1373 103.503 14.4646 103.823 14.8048 104.127C15.1449 104.428 15.498 104.712 15.8665 104.977C16.2324 105.242 16.6112 105.487 16.9978 105.713C17.3869 105.939 17.7863 106.142 18.1935 106.326C18.6007 106.51 19.0156 106.669 19.4356 106.808C19.8582 106.948 20.286 107.065 20.7189 107.157C21.1493 107.252 21.5848 107.321 22.0255 107.369C22.4636 107.416 22.9042 107.441 23.3449 107.441H118.5C118.825 107.441 119.144 107.475 119.464 107.544C119.781 107.611 120.09 107.714 120.389 107.848C120.688 107.982 120.974 108.146 121.242 108.342C121.512 108.537 121.762 108.757 121.992 109.005C122.221 109.253 122.425 109.523 122.605 109.816C122.786 110.109 122.938 110.415 123.061 110.739C123.185 111.065 123.28 111.399 123.342 111.742C123.407 112.085 123.438 112.433 123.438 112.785C123.438 113.136 123.407 113.484 123.342 113.827C123.28 114.17 123.185 114.504 123.061 114.83C122.938 115.154 122.786 115.46 122.605 115.753C122.425 116.046 122.221 116.313 121.992 116.561C121.762 116.809 121.512 117.032 121.242 117.228C120.974 117.423 120.688 117.587 120.389 117.721C120.09 117.855 119.781 117.958 119.464 118.025C119.144 118.094 118.825 118.128 118.5 118.128H23.3449C22.5795 118.128 21.8167 118.086 21.0565 118.002C20.2963 117.922 19.5413 117.799 18.7914 117.637C18.0415 117.476 17.3019 117.272 16.57 117.032C15.8407 116.793 15.1217 116.514 14.4156 116.196C13.7096 115.879 13.0189 115.525 12.3463 115.134C11.6712 114.744 11.0166 114.32 10.3827 113.86C9.74615 113.401 9.13283 112.907 8.5427 112.383C7.95257 111.859 7.38563 111.304 6.84704 110.719C6.30588 110.134 5.79306 109.523 5.30859 108.882C4.82411 108.244 4.36799 107.581 3.94278 106.892C3.51758 106.204 3.12588 105.496 2.7651 104.768C2.40433 104.038 2.07705 103.291 1.78585 102.527C1.49207 101.763 1.23438 100.986 1.01275 100.194C0.788557 99.4025 0.603014 98.6025 0.453549 97.7914C0.304084 96.9803 0.190697 96.1636 0.115965 95.3385C0.0386547 94.5163 0 93.6912 0 92.8634V25.8388C0 25.0109 0.0386547 24.1859 0.115965 23.3636C0.190697 22.5413 0.304084 21.7218 0.453549 20.9107C0.603014 20.0996 0.788557 19.2996 1.01275 18.508C1.23438 17.7164 1.49207 16.9387 1.78585 16.175C2.07705 15.4113 2.40433 14.6643 2.7651 13.9368C3.12588 13.2065 3.51758 12.4985 3.94278 11.81C4.36799 11.1243 4.82411 10.4609 5.30859 9.81986C5.79306 9.18155 6.30588 8.56834 6.84704 7.98299C7.38563 7.40044 7.95257 6.84576 8.5427 6.31895C9.13283 5.79492 9.74615 5.30156 10.3827 4.84165C11.0166 4.38174 11.6712 3.95806 12.3463 3.56783C13.0189 3.1776 13.7096 2.82361 14.4156 2.50585C15.1217 2.19088 15.8407 1.91215 16.57 1.66965C17.3019 1.42993 18.0415 1.22925 18.7914 1.06479C19.5413 0.903126 20.2963 0.780482 21.0565 0.699649C21.8167 0.618817 22.5795 0.577006 23.3449 0.574219H213.655C214.42 0.577006 215.183 0.618817 215.943 0.699649C216.704 0.780482 217.459 0.903126 218.209 1.06479C218.956 1.22925 219.698 1.42993 220.427 1.66965C221.159 1.91215 221.878 2.19088 222.584 2.50585C223.29 2.82361 223.981 3.1776 224.654 3.56783C225.329 3.95806 225.983 4.38174 226.617 4.84165C227.254 5.30156 227.867 5.79492 228.457 6.31895C229.047 6.84576 229.614 7.40044 230.153 7.98299C230.694 8.56834 231.207 9.18155 231.691 9.81986C232.176 10.4609 232.632 11.1243 233.057 11.81C233.482 12.4985 233.874 13.2065 234.235 13.9368C234.596 14.6643 234.923 15.4113 235.214 16.175C235.508 16.9387 235.766 17.7164 235.987 18.508C236.211 19.2996 236.397 20.0996 236.546 20.9107C236.696 21.7218 236.809 22.5413 236.884 23.3636C236.961 24.1859 237 25.0109 237 25.8388ZM69.4703 40.4584C69.241 40.2103 68.991 39.9873 68.723 39.7922C68.4524 39.5999 68.1689 39.4327 67.87 39.2989C67.5685 39.1651 67.2618 39.0647 66.9423 38.995C66.6253 38.9282 66.3032 38.8919 65.9785 38.8919C65.6564 38.8919 65.3343 38.9282 65.0173 38.995C64.6977 39.0647 64.3911 39.1651 64.0896 39.2989C63.7906 39.4327 63.5072 39.5999 63.2366 39.7922C62.9686 39.9873 62.7186 40.2103 62.4893 40.4584L52.0216 51.7973L41.5435 40.4584C41.3168 40.202 41.0668 39.9734 40.7988 39.7727C40.5282 39.572 40.2422 39.3992 39.9407 39.2598C39.6392 39.1205 39.3299 39.0146 39.0078 38.9421C38.6883 38.8668 38.3636 38.8306 38.0363 38.8278C37.7064 38.8222 37.3817 38.8557 37.0596 38.9226C36.7401 38.9895 36.4257 39.0898 36.1242 39.2236C35.8201 39.3574 35.5314 39.5246 35.2583 39.7198C34.9851 39.9177 34.7326 40.1406 34.5007 40.3915C34.2687 40.6424 34.0626 40.9155 33.8822 41.211C33.6992 41.5065 33.5472 41.8186 33.4235 42.1475C33.2998 42.4737 33.2044 42.8137 33.1426 43.1621C33.0807 43.5106 33.0524 43.8618 33.055 44.2158C33.0575 44.5697 33.0936 44.921 33.1606 45.2694C33.2276 45.615 33.3256 45.9523 33.457 46.2784C33.5858 46.6045 33.743 46.9139 33.9286 47.2066C34.1167 47.4965 34.3254 47.7668 34.5625 48.0121L45.0405 59.3511L34.5625 70.69C34.3409 70.9409 34.1425 71.2112 33.9672 71.5011C33.792 71.7938 33.6477 72.1004 33.5291 72.4209C33.408 72.7443 33.3204 73.076 33.2611 73.416C33.2019 73.7589 33.1735 74.1017 33.1761 74.4473C33.1787 74.7958 33.2122 75.1386 33.2766 75.4787C33.341 75.8187 33.4364 76.1476 33.5601 76.4682C33.6838 76.7887 33.8358 77.0925 34.0136 77.3796C34.194 77.6695 34.395 77.9343 34.6218 78.1796C34.8485 78.4249 35.0959 78.6451 35.3614 78.8374C35.6268 79.0325 35.9077 79.1942 36.204 79.3308C36.5004 79.4646 36.8045 79.5649 37.1189 79.6346C37.4333 79.7043 37.7502 79.7433 38.0698 79.7461C38.3919 79.7489 38.7089 79.7182 39.0233 79.6541C39.3402 79.59 39.6469 79.4925 39.9432 79.3642C40.2422 79.236 40.5256 79.0771 40.7936 78.8904C41.0642 78.7008 41.3142 78.4862 41.5435 78.2465L52.0216 66.9076L62.4893 78.2465C62.7186 78.4862 62.9686 78.7008 63.2392 78.8904C63.5072 79.0771 63.7906 79.236 64.0896 79.3642C64.3859 79.4925 64.6926 79.59 65.0096 79.6541C65.324 79.7182 65.6409 79.7489 65.963 79.7461C66.2826 79.7433 66.5996 79.7043 66.9139 79.6346C67.2283 79.5649 67.5324 79.4646 67.8288 79.3308C68.1251 79.1942 68.406 79.0325 68.6714 78.8374C68.9369 78.6451 69.1843 78.4249 69.411 78.1796C69.6378 77.9343 69.8388 77.6695 70.0192 77.3796C70.197 77.0925 70.3491 76.7887 70.4728 76.4682C70.5965 76.1476 70.6918 75.8187 70.7562 75.4787C70.8207 75.1386 70.8542 74.7958 70.8567 74.4473C70.8593 74.1017 70.831 73.7589 70.7717 73.416C70.7124 73.076 70.6248 72.7443 70.5037 72.4209C70.3851 72.1004 70.2408 71.7938 70.0656 71.5011C69.8904 71.2112 69.6919 70.9409 69.4703 70.69L59.0026 59.3511L69.4703 48.0121C69.6997 47.764 69.9033 47.4965 70.0836 47.2038C70.264 46.9111 70.4161 46.6045 70.5398 46.2812C70.6635 45.9551 70.7588 45.6206 70.8207 45.2777C70.8851 44.9349 70.916 44.5865 70.916 44.2353C70.916 43.8841 70.8851 43.5384 70.8207 43.1928C70.7588 42.85 70.6635 42.5155 70.5398 42.1921C70.4161 41.866 70.264 41.5594 70.0836 41.2667C69.9033 40.9769 69.6997 40.7065 69.4703 40.4584ZM101.069 78.2465C101.299 78.4946 101.549 78.7148 101.819 78.9099C102.087 79.105 102.373 79.2695 102.672 79.4033C102.971 79.537 103.28 79.6402 103.597 79.7071C103.917 79.7768 104.236 79.8102 104.561 79.8102C104.886 79.8102 105.205 79.7768 105.525 79.7071C105.842 79.6402 106.151 79.537 106.45 79.4033C106.749 79.2695 107.035 79.105 107.303 78.9099C107.574 78.7148 107.824 78.4946 108.053 78.2465L118.5 66.9076L128.978 78.2465C129.207 78.4862 129.457 78.7008 129.728 78.8904C129.996 79.0771 130.279 79.236 130.578 79.3642C130.875 79.4925 131.181 79.59 131.496 79.6541C131.813 79.7182 132.13 79.7489 132.449 79.7461C132.771 79.7433 133.088 79.7043 133.403 79.6346C133.717 79.5649 134.021 79.4646 134.318 79.3308C134.611 79.1942 134.892 79.0325 135.16 78.8374C135.426 78.6451 135.673 78.4249 135.9 78.1796C136.127 77.9343 136.328 77.6695 136.508 77.3796C136.686 77.0925 136.838 76.7887 136.962 76.4682C137.085 76.1476 137.178 75.8187 137.242 75.4787C137.309 75.1386 137.343 74.7958 137.345 74.4473C137.348 74.1017 137.32 73.7589 137.26 73.416C137.201 73.076 137.111 72.7443 136.992 72.4209C136.874 72.1004 136.727 71.7938 136.554 71.5011C136.379 71.2112 136.181 70.9409 135.959 70.69L125.481 59.3511L135.959 48.0121C136.194 47.7668 136.405 47.4965 136.593 47.2066C136.779 46.9139 136.936 46.6045 137.065 46.2784C137.196 45.9523 137.294 45.615 137.361 45.2694C137.428 44.921 137.464 44.5697 137.467 44.2158C137.469 43.8618 137.438 43.5106 137.376 43.1621C137.315 42.8137 137.222 42.4737 137.098 42.1475C136.974 41.8186 136.822 41.5065 136.639 41.211C136.459 40.9155 136.253 40.6424 136.021 40.3915C135.789 40.1406 135.536 39.9177 135.263 39.7198C134.99 39.5246 134.701 39.3574 134.397 39.2236C134.096 39.0898 133.782 38.9895 133.459 38.9226C133.137 38.8557 132.813 38.8222 132.485 38.8278C132.158 38.8306 131.833 38.8668 131.514 38.9393C131.192 39.0146 130.882 39.1205 130.581 39.2598C130.279 39.3992 129.993 39.572 129.723 39.7727C129.455 39.9734 129.205 40.202 128.978 40.4584L118.5 51.7973L108.022 40.4584C107.795 40.202 107.545 39.9734 107.277 39.7727C107.007 39.572 106.721 39.3992 106.419 39.2598C106.118 39.1205 105.808 39.0146 105.486 38.9421C105.167 38.8668 104.842 38.8306 104.515 38.8278C104.185 38.8222 103.86 38.8557 103.541 38.9226C103.218 38.9895 102.904 39.0898 102.603 39.2236C102.299 39.3574 102.01 39.5246 101.737 39.7198C101.464 39.9177 101.211 40.1406 100.979 40.3915C100.747 40.6424 100.541 40.9155 100.361 41.211C100.178 41.5065 100.026 41.8186 99.9019 42.1475C99.7782 42.4737 99.6829 42.8137 99.621 43.1621C99.5592 43.5106 99.5308 43.8618 99.5334 44.2158C99.536 44.5697 99.5721 44.921 99.6391 45.2694C99.7061 45.615 99.804 45.9523 99.9354 46.2784C100.064 46.6045 100.221 46.9139 100.407 47.2066C100.595 47.4965 100.804 47.7668 101.041 48.0121L111.519 59.3511L101.041 70.69C100.812 70.9381 100.608 71.2085 100.428 71.4983C100.247 71.791 100.095 72.1004 99.9715 72.4237C99.8478 72.7471 99.7524 73.0816 99.6906 73.4244C99.6262 73.77 99.5953 74.1157 99.5953 74.4669C99.5953 74.8181 99.6262 75.1665 99.6906 75.5093C99.7524 75.855 99.8478 76.1894 99.9715 76.5128C100.095 76.8361 100.247 77.1455 100.428 77.4354C100.608 77.7281 100.812 77.9984 101.041 78.2465H101.069ZM198.971 79.8046C199.296 79.8046 199.616 79.7712 199.935 79.7043C200.252 79.6346 200.561 79.5343 200.86 79.3977C201.159 79.2639 201.445 79.0994 201.713 78.9043C201.984 78.7092 202.234 78.489 202.463 78.2409C202.693 77.9929 202.896 77.7225 203.077 77.4298C203.257 77.1399 203.409 76.8305 203.533 76.5072C203.656 76.1839 203.752 75.8494 203.814 75.5038C203.878 75.1609 203.909 74.8125 203.909 74.4613C203.909 74.1129 203.878 73.7645 203.814 73.4188C203.752 73.076 203.656 72.7415 203.533 72.4182C203.409 72.0948 203.257 71.7854 203.077 71.4928C202.896 71.2029 202.693 70.9325 202.463 70.6844C202.234 70.4364 201.984 70.2134 201.713 70.0182C201.445 69.8259 201.159 69.6615 200.86 69.5249C200.561 69.3911 200.252 69.2908 199.935 69.2211C199.616 69.1542 199.296 69.1179 198.971 69.1179H167.746C167.421 69.1179 167.102 69.1542 166.782 69.2211C166.465 69.2908 166.156 69.3911 165.857 69.5249C165.558 69.6615 165.272 69.8259 165.004 70.0182C164.734 70.2134 164.484 70.4364 164.254 70.6844C164.025 70.9325 163.821 71.2029 163.641 71.4928C163.461 71.7854 163.309 72.0948 163.185 72.4182C163.061 72.7415 162.966 73.076 162.904 73.4188C162.84 73.7645 162.809 74.1129 162.809 74.4613C162.809 74.8125 162.84 75.1609 162.904 75.5038C162.966 75.8494 163.061 76.1839 163.185 76.5072C163.309 76.8305 163.461 77.1399 163.641 77.4298C163.821 77.7225 164.025 77.9929 164.254 78.2409C164.484 78.489 164.734 78.7092 165.004 78.9043C165.272 79.0994 165.558 79.2639 165.857 79.3977C166.156 79.5343 166.465 79.6346 166.782 79.7043C167.102 79.7712 167.421 79.8046 167.746 79.8046H198.971ZM159.057 96.2193L234.036 131.934C234.516 132.162 234.949 132.466 235.34 132.845C235.73 133.221 236.054 133.656 236.317 134.144C236.58 134.635 236.765 135.156 236.874 135.711C236.982 136.262 237.01 136.823 236.956 137.386C236.9 137.949 236.765 138.487 236.552 139.005C236.338 139.521 236.057 139.989 235.706 140.41C235.356 140.828 234.951 141.179 234.498 141.461C234.044 141.742 233.562 141.94 233.049 142.055L201.559 149.279L194.882 183.357C194.774 183.909 194.591 184.431 194.328 184.918C194.067 185.406 193.743 185.841 193.356 186.217C192.967 186.594 192.537 186.897 192.06 187.126C191.583 187.357 191.086 187.499 190.568 187.558H190.055C189.573 187.558 189.104 187.483 188.643 187.335C188.184 187.187 187.754 186.97 187.352 186.686C186.95 186.401 186.594 186.058 186.285 185.663C185.973 185.267 185.723 184.829 185.532 184.353L152.508 103.199C152.31 102.705 152.181 102.193 152.124 101.657C152.068 101.122 152.083 100.59 152.176 100.063C152.269 99.5335 152.429 99.029 152.663 98.5551C152.895 98.0785 153.186 97.6492 153.537 97.2702C153.89 96.8883 154.284 96.5733 154.725 96.3225C155.165 96.0688 155.629 95.896 156.119 95.7957C156.608 95.6953 157.098 95.6786 157.593 95.7399C158.088 95.8012 158.562 95.9406 159.018 96.1552L159.057 96.2193ZM166.721 111.555L188.444 164.989L192.562 143.668C192.66 143.161 192.825 142.682 193.052 142.225C193.281 141.77 193.565 141.36 193.903 140.993C194.24 140.627 194.619 140.321 195.042 140.076C195.462 139.827 195.905 139.652 196.374 139.543L216.016 135.033L166.721 111.555Z" fill="white"/>
</g>
</svg>
