<svg width="45" height="12" viewBox="0 0 45 12" fill="none" xmlns="http://www.w3.org/2000/svg">
<g filter="url(#filter0_i_447_247)">
<path fill-rule="evenodd" clip-rule="evenodd" d="M5.88592 11.1241C8.6947 11.1241 10.9717 8.84716 10.9717 6.03838C10.9717 3.2296 8.6947 0.952637 5.88592 0.952637C3.07714 0.952637 0.800171 3.2296 0.800171 6.03838C0.800171 8.84716 3.07714 11.1241 5.88592 11.1241Z" fill="#EE6A5F"/>
</g>
<path d="M10.7598 6.03838C10.7598 8.73013 8.57766 10.9122 5.88592 10.9122C3.19417 10.9122 1.01208 8.73013 1.01208 6.03838C1.01208 3.34664 3.19417 1.16454 5.88592 1.16454C8.57766 1.16454 10.7598 3.34664 10.7598 6.03838Z" stroke="#CE5347" stroke-width="0.423812"/>
<g filter="url(#filter1_i_447_247)">
<path fill-rule="evenodd" clip-rule="evenodd" d="M22.8384 11.1241C25.6472 11.1241 27.9242 8.84716 27.9242 6.03838C27.9242 3.2296 25.6472 0.952637 22.8384 0.952637C20.0297 0.952637 17.7527 3.2296 17.7527 6.03838C17.7527 8.84716 20.0297 11.1241 22.8384 11.1241Z" fill="#F5BD4F"/>
</g>
<path d="M27.7123 6.03838C27.7123 8.73013 25.5302 10.9122 22.8384 10.9122C20.1467 10.9122 17.9646 8.73013 17.9646 6.03838C17.9646 3.34664 20.1467 1.16454 22.8384 1.16454C25.5302 1.16454 27.7123 3.34664 27.7123 6.03838Z" stroke="#D6A243" stroke-width="0.423812"/>
<g filter="url(#filter2_i_447_247)">
<path fill-rule="evenodd" clip-rule="evenodd" d="M39.7909 11.1241C42.5997 11.1241 44.8767 8.84716 44.8767 6.03838C44.8767 3.2296 42.5997 0.952637 39.7909 0.952637C36.9822 0.952637 34.7052 3.2296 34.7052 6.03838C34.7052 8.84716 36.9822 11.1241 39.7909 11.1241Z" fill="#61C454"/>
</g>
<path d="M44.6648 6.03838C44.6648 8.73013 42.4827 10.9122 39.7909 10.9122C37.0992 10.9122 34.9171 8.73013 34.9171 6.03838C34.9171 3.34664 37.0992 1.16454 39.7909 1.16454C42.4827 1.16454 44.6648 3.34664 44.6648 6.03838Z" stroke="#58A942" stroke-width="0.423812"/>
<defs>
<filter id="filter0_i_447_247" x="0.800171" y="0.952637" width="10.1715" height="10.1714" filterUnits="userSpaceOnUse" color-interpolation-filters="sRGB">
<feFlood flood-opacity="0" result="BackgroundImageFix"/>
<feBlend mode="normal" in="SourceGraphic" in2="BackgroundImageFix" result="shape"/>
<feColorMatrix in="SourceAlpha" type="matrix" values="0 0 0 0 0 0 0 0 0 0 0 0 0 0 0 0 0 0 127 0" result="hardAlpha"/>
<feOffset/>
<feGaussianBlur stdDeviation="2.54287"/>
<feComposite in2="hardAlpha" operator="arithmetic" k2="-1" k3="1"/>
<feColorMatrix type="matrix" values="0 0 0 0 0.92549 0 0 0 0 0.427451 0 0 0 0 0.384314 0 0 0 1 0"/>
<feBlend mode="normal" in2="shape" result="effect1_innerShadow_447_247"/>
</filter>
<filter id="filter1_i_447_247" x="17.7527" y="0.952637" width="10.1715" height="10.1714" filterUnits="userSpaceOnUse" color-interpolation-filters="sRGB">
<feFlood flood-opacity="0" result="BackgroundImageFix"/>
<feBlend mode="normal" in="SourceGraphic" in2="BackgroundImageFix" result="shape"/>
<feColorMatrix in="SourceAlpha" type="matrix" values="0 0 0 0 0 0 0 0 0 0 0 0 0 0 0 0 0 0 127 0" result="hardAlpha"/>
<feOffset/>
<feGaussianBlur stdDeviation="2.54287"/>
<feComposite in2="hardAlpha" operator="arithmetic" k2="-1" k3="1"/>
<feColorMatrix type="matrix" values="0 0 0 0 0.960784 0 0 0 0 0.768627 0 0 0 0 0.317647 0 0 0 1 0"/>
<feBlend mode="normal" in2="shape" result="effect1_innerShadow_447_247"/>
</filter>
<filter id="filter2_i_447_247" x="34.7052" y="0.952637" width="10.1715" height="10.1714" filterUnits="userSpaceOnUse" color-interpolation-filters="sRGB">
<feFlood flood-opacity="0" result="BackgroundImageFix"/>
<feBlend mode="normal" in="SourceGraphic" in2="BackgroundImageFix" result="shape"/>
<feColorMatrix in="SourceAlpha" type="matrix" values="0 0 0 0 0 0 0 0 0 0 0 0 0 0 0 0 0 0 127 0" result="hardAlpha"/>
<feOffset/>
<feGaussianBlur stdDeviation="2.54287"/>
<feComposite in2="hardAlpha" operator="arithmetic" k2="-1" k3="1"/>
<feColorMatrix type="matrix" values="0 0 0 0 0.407843 0 0 0 0 0.8 0 0 0 0 0.345098 0 0 0 1 0"/>
<feBlend mode="normal" in2="shape" result="effect1_innerShadow_447_247"/>
</filter>
</defs>
</svg>
